  0
SECTION
  2
HEADER
  9
$ACADVER
  1
AC1014
  9
$HANDSEED
  5
FFFF
  9
$MEASUREMENT
 70
     1
  0
ENDSEC
  0
SECTION
  2
TABLES
  0
TABLE
  2
VPORT
  5
8
330
0
100
AcDbSymbolTable
 70
     4
  0
VPORT
  5
2E
330
8
100
AcDbSymbolTableRecord
100
AcDbViewportTableRecord
  2
*ACTIVE
 70
     0
 10
0.0
 20
0.0
 11
1.0
 21
1.0
 12
210.0
 22
148.5
 13
0.0
 23
0.0
 14
10.0
 24
10.0
 15
10.0
 25
10.0
 16
0.0
 26
0.0
 36
1.0
 17
0.0
 27
0.0
 37
0.0
 40
341.0
 41
1.24
 42
50.0
 43
0.0
 44
0.0
 50
0.0
 51
0.0
 71
     0
 72
   100
 73
     1
 74
     3
 75
     0
 76
     0
 77
     0
 78
     0
  0
ENDTAB
  0
TABLE
  2
LTYPE
  5
5
330
0
100
AcDbSymbolTable
 70
     1
  0
LTYPE
  5
14
330
5
100
AcDbSymbolTableRecord
100
AcDbLinetypeTableRecord
  2
BYBLOCK
 70
     0
  3

 72
    65
 73
     0
 40
0.0
  0
LTYPE
  5
15
330
5
100
AcDbSymbolTableRecord
100
AcDbLinetypeTableRecord
  2
BYLAYER
 70
     0
  3

 72
    65
 73
     0
 40
0.0
  0
LTYPE
  5
16
330
5
100
AcDbSymbolTableRecord
100
AcDbLinetypeTableRecord
  2
CONTINUOUS
 70
     0
  3
Solid line
 72
    65
 73
     0
 40
0.0
  0
ENDTAB
  0
TABLE
  2
LAYER
  5
2
100
AcDbSymbolTable
 70
3
  0
LAYER
  5
50
100
AcDbSymbolTableRecord
100
AcDbLayerTableRecord
  2
0
 70
0
  6
CONTINUOUS
  0
LAYER
  5
51
100
AcDbSymbolTableRecord
100
AcDbLayerTableRecord
  2
Layer_1
 70
0
  6
CONTINUOUS
  0
LAYER
  5
52
100
AcDbSymbolTableRecord
100
AcDbLayerTableRecord
  2
Layer_2
 70
0
  6
CONTINUOUS
  0
ENDTAB
  0
TABLE
  2
STYLE
  5
3
330
0
100
AcDbSymbolTable
 70
     1
  0
STYLE
  5
11
330
3
100
AcDbSymbolTableRecord
100
AcDbTextStyleTableRecord
  2
STANDARD
 70
     0
 40
0.0
 41
1.0
 50
0.0
 71
     0
 42
2.5
  3
txt
  4

  0
ENDTAB
  0
TABLE
  2
VIEW
  5
6
330
0
100
AcDbSymbolTable
 70
     0
  0
ENDTAB
  0
TABLE
  2
UCS
  5
7
330
0
100
AcDbSymbolTable
 70
     0
  0
ENDTAB
  0
TABLE
  2
APPID
  5
9
330
0
100
AcDbSymbolTable
 70
     2
  0
APPID
  5
12
330
9
100
AcDbSymbolTableRecord
100
AcDbRegAppTableRecord
  2
ACAD
 70
     0
  0
ENDTAB
  0
TABLE
  2
DIMSTYLE
  5
A
330
0
100
AcDbSymbolTable
 70
     1
  0
DIMSTYLE
105
27
330
A
100
AcDbSymbolTableRecord
100
AcDbDimStyleTableRecord
  2
ISO-25
 70
     0
  3

  4

  5

  6

  7

 40
1.0
 41
2.5
 42
0.625
 43
3.75
 44
1.25
 45
0.0
 46
0.0
 47
0.0
 48
0.0
140
2.5
141
2.5
142
0.0
143
0.03937007874016
144
1.0
145
0.0
146
1.0
147
0.625
 71
     0
 72
     0
 73
     0
 74
     0
 75
     0
 76
     0
 77
     1
 78
     8
170
     0
171
     3
172
     1
173
     0
174
     0
175
     0
176
     0
177
     0
178
     0
270
     2
271
     2
272
     2
273
     2
274
     3
340
11
275
     0
280
     0
281
     0
282
     0
283
     0
284
     8
285
     0
286
     0
287
     3
288
     0
  0
ENDTAB
  0
TABLE
  2
BLOCK_RECORD
  5
1
330
0
100
AcDbSymbolTable
 70
     1
  0
BLOCK_RECORD
  5
1F
330
1
100
AcDbSymbolTableRecord
100
AcDbBlockTableRecord
  2
*MODEL_SPACE
  0
BLOCK_RECORD
  5
1B
330
1
100
AcDbSymbolTableRecord
100
AcDbBlockTableRecord
  2
*PAPER_SPACE
  0
ENDTAB
  0
ENDSEC
  0
SECTION
  2
BLOCKS
  0
BLOCK
  5
20
330
1F
100
AcDbEntity
  8
0
100
AcDbBlockBegin
  2
*MODEL_SPACE
 70
     0
 10
0.0
 20
0.0
 30
0.0
  3
*MODEL_SPACE
  1

  0
ENDBLK
  5
21
330
1F
100
AcDbEntity
  8
0
100
AcDbBlockEnd
  0
BLOCK
  5
1C
330
1B
100
AcDbEntity
 67
     1
  8
0
100
AcDbBlockBegin
  2
*PAPER_SPACE
  1

  0
ENDBLK
  5
1D
330
1B
100
AcDbEntity
 67
     1
  8
0
100
AcDbBlockEnd
  0
ENDSEC
  0
SECTION
  2
ENTITIES
  0
SPLINE
  5
100
100
AcDbEntity
  8
Layer_1
 62
7
100
AcDbSpline
 70
8
 71
3
 72
8
 73
4
 74
0
 40
0
 40
0
 40
0
 40
0
 40
1
 40
1
 40
1
 40
1
 10
23.584632
 20
68.262192
 30
0.0
 10
21.557345
 20
68.558751
 30
0.0
 10
20.953048
 20
68.757436
 30
0.0
 10
20.231482
 20
69.364581
 30
0.0
  0
SPLINE
  5
101
100
AcDbEntity
  8
Layer_1
 62
7
100
AcDbSpline
 70
8
 71
3
 72
8
 73
4
 74
0
 40
0
 40
0
 40
0
 40
0
 40
1
 40
1
 40
1
 40
1
 10
20.231482
 20
69.364581
 30
0.0
 10
18.847427
 20
70.529199
 30
0.0
 10
18.495654
 20
72.116501
 30
0.0
 10
18.327196
 20
77.957259
 30
0.0
  0
SPLINE
  5
102
100
AcDbEntity
  8
Layer_1
 62
7
100
AcDbSpline
 70
8
 71
3
 72
8
 73
4
 74
0
 40
0
 40
0
 40
0
 40
0
 40
1
 40
1
 40
1
 40
1
 10
18.327196
 20
77.957259
 30
0.0
 10
18.237892
 20
81.053604
 30
0.0
 10
18.013650
 20
83.805468
 30
0.0
 10
17.776176
 20
84.719332
 30
0.0
  0
SPLINE
  5
103
100
AcDbEntity
  8
Layer_1
 62
7
100
AcDbSpline
 70
8
 71
3
 72
8
 73
4
 74
0
 40
0
 40
0
 40
0
 40
0
 40
1
 40
1
 40
1
 40
1
 10
17.776176
 20
84.719332
 30
0.0
 10
17.018926
 20
87.633389
 30
0.0
 10
17.557502
 20
96.455063
 30
0.0
 10
18.617845
 20
98.505521
 30
0.0
  0
SPLINE
  5
104
100
AcDbEntity
  8
Layer_1
 62
7
100
AcDbSpline
 70
8
 71
3
 72
8
 73
4
 74
0
 40
0
 40
0
 40
0
 40
0
 40
1
 40
1
 40
1
 40
1
 10
18.617845
 20
98.505521
 30
0.0
 10
18.881093
 20
99.014593
 30
0.0
 10
19.503063
 20
99.687101
 30
0.0
 10
20.000000
 20
100.000000
 30
0.0
  0
SPLINE
  5
105
100
AcDbEntity
  8
Layer_1
 62
7
100
AcDbSpline
 70
8
 71
3
 72
8
 73
4
 74
0
 40
0
 40
0
 40
0
 40
0
 40
1
 40
1
 40
1
 40
1
 10
20.000000
 20
100.000000
 30
0.0
 10
20.942413
 20
100.593373
 30
0.0
 10
21.981491
 20
100.604944
 30
0.0
 10
27.562170
 20
100.084131
 30
0.0
  0
SPLINE
  5
106
100
AcDbEntity
  8
Layer_1
 62
7
100
AcDbSpline
 70
8
 71
3
 72
8
 73
4
 74
0
 40
0
 40
0
 40
0
 40
0
 40
1
 40
1
 40
1
 40
1
 10
27.562170
 20
100.084131
 30
0.0
 10
29.686798
 20
99.885841
 30
0.0
 10
30.792668
 20
100.287105
 30
0.0
 10
31.709860
 20
101.589109
 30
0.0
  0
SPLINE
  5
107
100
AcDbEntity
  8
Layer_1
 62
7
100
AcDbSpline
 70
8
 71
3
 72
8
 73
4
 74
0
 40
0
 40
0
 40
0
 40
0
 40
1
 40
1
 40
1
 40
1
 10
31.709860
 20
101.589109
 30
0.0
 10
32.719383
 20
103.022205
 30
0.0
 10
33.743107
 20
106.588986
 30
0.0
 10
33.976412
 20
109.486082
 30
0.0
  0
SPLINE
  5
108
100
AcDbEntity
  8
Layer_1
 62
7
100
AcDbSpline
 70
8
 71
3
 72
8
 73
4
 74
0
 40
0
 40
0
 40
0
 40
0
 40
1
 40
1
 40
1
 40
1
 10
33.976412
 20
109.486082
 30
0.0
 10
34.261795
 20
113.029862
 30
0.0
 10
33.862058
 20
119.357848
 30
0.0
 10
33.298246
 20
120.221759
 30
0.0
  0
SPLINE
  5
109
100
AcDbEntity
  8
Layer_1
 62
7
100
AcDbSpline
 70
8
 71
3
 72
8
 73
4
 74
0
 40
0
 40
0
 40
0
 40
0
 40
1
 40
1
 40
1
 40
1
 10
33.298246
 20
120.221759
 30
0.0
 10
31.878834
 20
122.396648
 30
0.0
 10
31.983903
 20
131.620432
 30
0.0
 10
33.455655
 20
134.040524
 30
0.0
  0
SPLINE
  5
10a
100
AcDbEntity
  8
Layer_1
 62
7
100
AcDbSpline
 70
8
 71
3
 72
8
 73
4
 74
0
 40
0
 40
0
 40
0
 40
0
 40
1
 40
1
 40
1
 40
1
 10
33.455655
 20
134.040524
 30
0.0
 10
33.875097
 20
134.730247
 30
0.0
 10
34.501187
 20
135.071567
 30
0.0
 10
36.890500
 20
135.913041
 30
0.0
  0
SPLINE
  5
10b
100
AcDbEntity
  8
Layer_1
 62
7
100
AcDbSpline
 70
8
 71
3
 72
8
 73
4
 74
0
 40
0
 40
0
 40
0
 40
0
 40
1
 40
1
 40
1
 40
1
 10
36.890500
 20
135.913041
 30
0.0
 10
38.497550
 20
136.479009
 30
0.0
 10
40.256909
 20
136.973745
 30
0.0
 10
40.800187
 20
137.012466
 30
0.0
  0
SPLINE
  5
10c
100
AcDbEntity
  8
Layer_1
 62
7
100
AcDbSpline
 70
8
 71
3
 72
8
 73
4
 74
0
 40
0
 40
0
 40
0
 40
0
 40
1
 40
1
 40
1
 40
1
 10
41.770015
 20
133.978379
 30
0.0
 10
41.760137
 20
132.270926
 30
0.0
 10
41.722379
 20
128.143426
 30
0.0
 10
41.686082
 20
124.806148
 30
0.0
  0
SPLINE
  5
10d
100
AcDbEntity
  8
Layer_1
 62
7
100
AcDbSpline
 70
8
 71
3
 72
8
 73
4
 74
0
 40
0
 40
0
 40
0
 40
0
 40
1
 40
1
 40
1
 40
1
 10
41.686082
 20
124.806148
 30
0.0
 10
41.605048
 20
117.354974
 30
0.0
 10
42.085551
 20
105.911145
 30
0.0
 10
42.643326
 20
102.008153
 30
0.0
  0
SPLINE
  5
10e
100
AcDbEntity
  8
Layer_1
 62
7
100
AcDbSpline
 70
8
 71
3
 72
8
 73
4
 74
0
 40
0
 40
0
 40
0
 40
0
 40
1
 40
1
 40
1
 40
1
 10
42.643326
 20
102.008153
 30
0.0
 10
43.406650
 20
96.666899
 30
0.0
 10
43.053768
 20
95.179221
 30
0.0
 10
40.575027
 20
93.288615
 30
0.0
  0
SPLINE
  5
10f
100
AcDbEntity
  8
Layer_1
 62
7
100
AcDbSpline
 70
8
 71
3
 72
8
 73
4
 74
0
 40
0
 40
0
 40
0
 40
0
 40
1
 40
1
 40
1
 40
1
 10
40.575027
 20
93.288615
 30
0.0
 10
38.988517
 20
92.078559
 30
0.0
 10
37.644730
 20
91.746553
 30
0.0
 10
34.501173
 20
91.788067
 30
0.0
  0
SPLINE
  5
110
100
AcDbEntity
  8
Layer_1
 62
7
100
AcDbSpline
 70
8
 71
3
 72
8
 73
4
 74
0
 40
0
 40
0
 40
0
 40
0
 40
1
 40
1
 40
1
 40
1
 10
34.501173
 20
91.788067
 30
0.0
 10
29.146957
 20
91.858736
 30
0.0
 10
28.974692
 20
91.839658
 30
0.0
 10
28.228462
 20
91.093434
 30
0.0
  0
SPLINE
  5
111
100
AcDbEntity
  8
Layer_1
 62
7
100
AcDbSpline
 70
8
 71
3
 72
8
 73
4
 74
0
 40
0
 40
0
 40
0
 40
0
 40
1
 40
1
 40
1
 40
1
 10
28.228462
 20
91.093434
 30
0.0
 10
27.544156
 20
90.409130
 30
0.0
 10
27.535734
 20
90.338772
 30
0.0
 10
27.535734
 20
85.307878
 30
0.0
  0
SPLINE
  5
112
100
AcDbEntity
  8
Layer_1
 62
7
100
AcDbSpline
 70
8
 71
3
 72
8
 73
4
 74
0
 40
0
 40
0
 40
0
 40
0
 40
1
 40
1
 40
1
 40
1
 10
27.535734
 20
85.307878
 30
0.0
 10
27.535734
 20
80.431389
 30
0.0
 10
27.559328
 20
80.215037
 30
0.0
 10
28.090953
 20
80.215037
 30
0.0
  0
SPLINE
  5
113
100
AcDbEntity
  8
Layer_1
 62
7
100
AcDbSpline
 70
8
 71
3
 72
8
 73
4
 74
0
 40
0
 40
0
 40
0
 40
0
 40
1
 40
1
 40
1
 40
1
 10
28.090953
 20
80.215037
 30
0.0
 10
28.396319
 20
80.215037
 30
0.0
 10
30.636413
 20
80.540722
 30
0.0
 10
33.068935
 20
80.938796
 30
0.0
  0
SPLINE
  5
114
100
AcDbEntity
  8
Layer_1
 62
7
100
AcDbSpline
 70
8
 71
3
 72
8
 73
4
 74
0
 40
0
 40
0
 40
0
 40
0
 40
1
 40
1
 40
1
 40
1
 10
33.068935
 20
80.938796
 30
0.0
 10
35.962621
 20
81.412337
 30
0.0
 10
37.892869
 20
81.595781
 30
0.0
 10
38.652052
 20
81.469430
 30
0.0
  0
SPLINE
  5
115
100
AcDbEntity
  8
Layer_1
 62
7
100
AcDbSpline
 70
8
 71
3
 72
8
 73
4
 74
0
 40
0
 40
0
 40
0
 40
0
 40
1
 40
1
 40
1
 40
1
 10
38.652052
 20
81.469430
 30
0.0
 10
42.090109
 20
80.897225
 30
0.0
 10
43.365620
 20
79.407628
 30
0.0
 10
43.401711
 20
75.922578
 30
0.0
  0
SPLINE
  5
116
100
AcDbEntity
  8
Layer_1
 62
7
100
AcDbSpline
 70
8
 71
3
 72
8
 73
4
 74
0
 40
0
 40
0
 40
0
 40
0
 40
1
 40
1
 40
1
 40
1
 10
43.401711
 20
75.922578
 30
0.0
 10
43.413423
 20
74.790924
 30
0.0
 10
43.339498
 20
73.601893
 30
0.0
 10
43.237415
 20
73.280273
 30
0.0
  0
SPLINE
  5
117
100
AcDbEntity
  8
Layer_1
 62
7
100
AcDbSpline
 70
8
 71
3
 72
8
 73
4
 74
0
 40
0
 40
0
 40
0
 40
0
 40
1
 40
1
 40
1
 40
1
 10
43.237415
 20
73.280273
 30
0.0
 10
42.912645
 20
72.257076
 30
0.0
 10
41.159241
 20
71.535575
 30
0.0
 10
38.196430
 20
71.206052
 30
0.0
  0
SPLINE
  5
118
100
AcDbEntity
  8
Layer_1
 62
7
100
AcDbSpline
 70
8
 71
3
 72
8
 73
4
 74
0
 40
0
 40
0
 40
0
 40
0
 40
1
 40
1
 40
1
 40
1
 10
38.196430
 20
71.206052
 30
0.0
 10
36.442546
 20
71.010952
 30
0.0
 10
34.608513
 20
70.583752
 30
0.0
 10
33.116430
 20
70.022723
 30
0.0
  0
SPLINE
  5
119
100
AcDbEntity
  8
Layer_1
 62
7
100
AcDbSpline
 70
8
 71
3
 72
8
 73
4
 74
0
 40
0
 40
0
 40
0
 40
0
 40
1
 40
1
 40
1
 40
1
 10
33.116430
 20
70.022723
 30
0.0
 10
31.832101
 20
69.539812
 30
0.0
 10
30.336789
 20
68.983270
 30
0.0
 10
29.793511
 20
68.785969
 30
0.0
  0
SPLINE
  5
11a
100
AcDbEntity
  8
Layer_1
 62
7
100
AcDbSpline
 70
8
 71
3
 72
8
 73
4
 74
0
 40
0
 40
0
 40
0
 40
0
 40
1
 40
1
 40
1
 40
1
 10
29.793511
 20
68.785969
 30
0.0
 10
28.907176
 20
68.464066
 30
0.0
 10
24.656043
 20
68.105446
 30
0.0
 10
23.584623
 20
68.262192
 30
0.0
  0
LWPOLYLINE
  5
11b
100
AcDbEntity
  8
Layer_1
 62
7
100
AcDbPolyline
 90
3
 70
1
 10
40.800187
 20
137.012466
 30
0.0
 10
41.787964
 20
137.082824
 30
0.0
 10
41.770015
 20
133.978379
 30
0.0
  0
SPLINE
  5
11c
100
AcDbEntity
  8
Layer_1
 62
7
100
AcDbSpline
 70
8
 71
3
 72
8
 73
4
 74
0
 40
0
 40
0
 40
0
 40
0
 40
1
 40
1
 40
1
 40
1
 10
57.169075
 20
72.629243
 30
0.0
 10
54.701587
 20
73.348401
 30
0.0
 10
51.662502
 20
73.423585
 30
0.0
 10
50.481772
 20
72.794653
 30
0.0
  0
SPLINE
  5
11d
100
AcDbEntity
  8
Layer_1
 62
7
100
AcDbSpline
 70
8
 71
3
 72
8
 73
4
 74
0
 40
0
 40
0
 40
0
 40
0
 40
1
 40
1
 40
1
 40
1
 10
50.481772
 20
72.794653
 30
0.0
 10
49.604617
 20
72.327434
 30
0.0
 10
49.568058
 20
72.331413
 30
0.0
 10
49.141216
 20
72.940816
 30
0.0
  0
SPLINE
  5
11e
100
AcDbEntity
  8
Layer_1
 62
7
100
AcDbSpline
 70
8
 71
3
 72
8
 73
4
 74
0
 40
0
 40
0
 40
0
 40
0
 40
1
 40
1
 40
1
 40
1
 10
49.141216
 20
72.940816
 30
0.0
 10
48.609707
 20
73.699655
 30
0.0
 10
48.600312
 20
74.638241
 30
0.0
 10
49.109921
 20
76.066935
 30
0.0
  0
SPLINE
  5
11f
100
AcDbEntity
  8
Layer_1
 62
7
100
AcDbSpline
 70
8
 71
3
 72
8
 73
4
 74
0
 40
0
 40
0
 40
0
 40
0
 40
1
 40
1
 40
1
 40
1
 10
49.109921
 20
76.066935
 30
0.0
 10
50.042857
 20
78.682458
 30
0.0
 10
52.244735
 20
80.680958
 30
0.0
 10
55.111760
 20
81.514445
 30
0.0
  0
LWPOLYLINE
  5
120
100
AcDbEntity
  8
Layer_1
 62
7
100
AcDbPolyline
 90
2
 70
1
 10
23.584623
 20
68.262192
 30
0.0
 10
23.584632
 20
68.262192
 30
0.0
  0
SPLINE
  5
121
100
AcDbEntity
  8
Layer_1
 62
7
100
AcDbSpline
 70
8
 71
3
 72
8
 73
4
 74
0
 40
0
 40
0
 40
0
 40
0
 40
1
 40
1
 40
1
 40
1
 10
58.786183
 20
80.961402
 30
0.0
 10
61.367427
 20
79.803473
 30
0.0
 10
63.295668
 20
79.442510
 30
0.0
 10
63.998650
 20
79.985619
 30
0.0
  0
SPLINE
  5
122
100
AcDbEntity
  8
Layer_1
 62
7
100
AcDbSpline
 70
8
 71
3
 72
8
 73
4
 74
0
 40
0
 40
0
 40
0
 40
0
 40
1
 40
1
 40
1
 40
1
 10
63.998650
 20
79.985619
 30
0.0
 10
64.368779
 20
80.271595
 30
0.0
 10
64.550502
 20
81.158788
 30
0.0
 10
64.794940
 20
83.873230
 30
0.0
  0
SPLINE
  5
123
100
AcDbEntity
  8
Layer_1
 62
7
100
AcDbSpline
 70
8
 71
3
 72
8
 73
4
 74
0
 40
0
 40
0
 40
0
 40
0
 40
1
 40
1
 40
1
 40
1
 10
64.794940
 20
83.873230
 30
0.0
 10
64.969133
 20
85.807609
 30
0.0
 10
65.028837
 20
87.831792
 30
0.0
 10
64.927613
 20
88.371344
 30
0.0
  0
SPLINE
  5
124
100
AcDbEntity
  8
Layer_1
 62
7
100
AcDbSpline
 70
8
 71
3
 72
8
 73
4
 74
0
 40
0
 40
0
 40
0
 40
0
 40
1
 40
1
 40
1
 40
1
 10
64.927613
 20
88.371344
 30
0.0
 10
64.714442
 20
89.507627
 30
0.0
 10
63.683586
 20
91.622572
 30
0.0
 10
61.406128
 20
95.596148
 30
0.0
  0
SPLINE
  5
125
100
AcDbEntity
  8
Layer_1
 62
7
100
AcDbSpline
 70
8
 71
3
 72
8
 73
4
 74
0
 40
0
 40
0
 40
0
 40
0
 40
1
 40
1
 40
1
 40
1
 10
61.406128
 20
95.596148
 30
0.0
 10
57.339179
 20
102.691921
 30
0.0
 10
55.436798
 20
107.724338
 30
0.0
 10
54.738493
 20
113.234191
 30
0.0
  0
SPLINE
  5
126
100
AcDbEntity
  8
Layer_1
 62
7
100
AcDbSpline
 70
8
 71
3
 72
8
 73
4
 74
0
 40
0
 40
0
 40
0
 40
0
 40
1
 40
1
 40
1
 40
1
 10
54.738493
 20
113.234191
 30
0.0
 10
54.051008
 20
118.658699
 30
0.0
 10
54.686076
 20
122.548371
 30
0.0
 10
56.259225
 20
122.548371
 30
0.0
  0
SPLINE
  5
127
100
AcDbEntity
  8
Layer_1
 62
7
100
AcDbSpline
 70
8
 71
3
 72
8
 73
4
 74
0
 40
0
 40
0
 40
0
 40
0
 40
1
 40
1
 40
1
 40
1
 10
56.259225
 20
122.548371
 30
0.0
 10
56.486803
 20
122.548371
 30
0.0
 10
57.795225
 20
121.900699
 30
0.0
 10
59.166828
 20
121.109094
 30
0.0
  0
SPLINE
  5
128
100
AcDbEntity
  8
Layer_1
 62
7
100
AcDbSpline
 70
8
 71
3
 72
8
 73
4
 74
0
 40
0
 40
0
 40
0
 40
0
 40
1
 40
1
 40
1
 40
1
 10
59.166828
 20
121.109094
 30
0.0
 10
62.650940
 20
119.098289
 30
0.0
 10
64.339368
 20
118.906519
 30
0.0
 10
71.182286
 20
119.744267
 30
0.0
  0
SPLINE
  5
129
100
AcDbEntity
  8
Layer_1
 62
7
100
AcDbSpline
 70
8
 71
3
 72
8
 73
4
 74
0
 40
0
 40
0
 40
0
 40
0
 40
1
 40
1
 40
1
 40
1
 10
71.182286
 20
119.744267
 30
0.0
 10
73.952521
 20
120.083442
 30
0.0
 10
77.298575
 20
120.483068
 30
0.0
 10
78.617964
 20
120.632336
 30
0.0
  0
SPLINE
  5
12a
100
AcDbEntity
  8
Layer_1
 62
7
100
AcDbSpline
 70
8
 71
3
 72
8
 73
4
 74
0
 40
0
 40
0
 40
0
 40
0
 40
1
 40
1
 40
1
 40
1
 10
78.617964
 20
120.632336
 30
0.0
 10
79.937353
 20
120.781603
 30
0.0
 10
81.905853
 20
121.085726
 30
0.0
 10
82.992409
 20
121.308117
 30
0.0
  0
SPLINE
  5
12b
100
AcDbEntity
  8
Layer_1
 62
7
100
AcDbSpline
 70
8
 71
3
 72
8
 73
4
 74
0
 40
0
 40
0
 40
0
 40
0
 40
1
 40
1
 40
1
 40
1
 10
82.992409
 20
121.308117
 30
0.0
 10
89.189473
 20
122.576621
 30
0.0
 10
89.975306
 20
122.650563
 30
0.0
 10
91.756382
 20
122.132798
 30
0.0
  0
SPLINE
  5
12c
100
AcDbEntity
  8
Layer_1
 62
7
100
AcDbSpline
 70
8
 71
3
 72
8
 73
4
 74
0
 40
0
 40
0
 40
0
 40
0
 40
1
 40
1
 40
1
 40
1
 10
91.756382
 20
122.132798
 30
0.0
 10
93.186696
 20
121.717000
 30
0.0
 10
93.710150
 20
121.355728
 30
0.0
 10
95.405967
 20
119.614021
 30
0.0
  0
SPLINE
  5
12d
100
AcDbEntity
  8
Layer_1
 62
7
100
AcDbSpline
 70
8
 71
3
 72
8
 73
4
 74
0
 40
0
 40
0
 40
0
 40
0
 40
1
 40
1
 40
1
 40
1
 10
95.405967
 20
119.614021
 30
0.0
 10
96.494843
 20
118.495688
 30
0.0
 10
97.703242
 20
116.952158
 30
0.0
 10
98.091298
 20
116.183977
 30
0.0
  0
SPLINE
  5
12e
100
AcDbEntity
  8
Layer_1
 62
7
100
AcDbSpline
 70
8
 71
3
 72
8
 73
4
 74
0
 40
0
 40
0
 40
0
 40
0
 40
1
 40
1
 40
1
 40
1
 10
98.091298
 20
116.183977
 30
0.0
 10
98.479353
 20
115.415768
 30
0.0
 10
98.830720
 20
114.732226
 30
0.0
 10
98.872113
 20
114.664973
 30
0.0
  0
SPLINE
  5
12f
100
AcDbEntity
  8
Layer_1
 62
7
100
AcDbSpline
 70
8
 71
3
 72
8
 73
4
 74
0
 40
0
 40
0
 40
0
 40
0
 40
1
 40
1
 40
1
 40
1
 10
98.872113
 20
114.664973
 30
0.0
 10
99.120915
 20
114.260661
 30
0.0
 10
99.519627
 20
115.390255
 30
0.0
 10
99.898087
 20
117.571636
 30
0.0
  0
SPLINE
  5
130
100
AcDbEntity
  8
Layer_1
 62
7
100
AcDbSpline
 70
8
 71
3
 72
8
 73
4
 74
0
 40
0
 40
0
 40
0
 40
0
 40
1
 40
1
 40
1
 40
1
 10
99.898087
 20
117.571636
 30
0.0
 10
100.443397
 20
120.714688
 30
0.0
 10
101.341851
 20
122.182187
 30
0.0
 10
104.336449
 20
124.820965
 30
0.0
  0
SPLINE
  5
131
100
AcDbEntity
  8
Layer_1
 62
7
100
AcDbSpline
 70
8
 71
3
 72
8
 73
4
 74
0
 40
0
 40
0
 40
0
 40
0
 40
1
 40
1
 40
1
 40
1
 10
104.336449
 20
124.820965
 30
0.0
 10
108.079867
 20
128.119635
 30
0.0
 10
110.483534
 20
128.976179
 30
0.0
 10
116.669346
 20
129.215758
 30
0.0
  0
SPLINE
  5
132
100
AcDbEntity
  8
Layer_1
 62
7
100
AcDbSpline
 70
8
 71
3
 72
8
 73
4
 74
0
 40
0
 40
0
 40
0
 40
0
 40
1
 40
1
 40
1
 40
1
 10
116.669346
 20
129.215758
 30
0.0
 10
120.333366
 20
129.357659
 30
0.0
 10
123.914738
 20
129.850701
 30
0.0
 10
125.985290
 20
130.498260
 30
0.0
  0
SPLINE
  5
133
100
AcDbEntity
  8
Layer_1
 62
7
100
AcDbSpline
 70
8
 71
3
 72
8
 73
4
 74
0
 40
0
 40
0
 40
0
 40
0
 40
1
 40
1
 40
1
 40
1
 10
125.985290
 20
130.498260
 30
0.0
 10
127.435291
 20
130.951735
 30
0.0
 10
130.034219
 20
130.812571
 30
0.0
 10
131.424220
 20
130.207035
 30
0.0
  0
SPLINE
  5
134
100
AcDbEntity
  8
Layer_1
 62
7
100
AcDbSpline
 70
8
 71
3
 72
8
 73
4
 74
0
 40
0
 40
0
 40
0
 40
0
 40
1
 40
1
 40
1
 40
1
 10
131.424220
 20
130.207035
 30
0.0
 10
133.458591
 20
129.320773
 30
0.0
 10
134.837895
 20
128.131234
 30
0.0
 10
137.117150
 20
125.297441
 30
0.0
  0
SPLINE
  5
135
100
AcDbEntity
  8
Layer_1
 62
7
100
AcDbSpline
 70
8
 71
3
 72
8
 73
4
 74
0
 40
0
 40
0
 40
0
 40
0
 40
1
 40
1
 40
1
 40
1
 10
137.117150
 20
125.297441
 30
0.0
 10
140.389065
 20
121.229433
 30
0.0
 10
140.535002
 20
120.921613
 30
0.0
 10
140.336685
 20
118.507400
 30
0.0
  0
SPLINE
  5
136
100
AcDbEntity
  8
Layer_1
 62
7
100
AcDbSpline
 70
8
 71
3
 72
8
 73
4
 74
0
 40
0
 40
0
 40
0
 40
0
 40
1
 40
1
 40
1
 40
1
 10
140.336685
 20
118.507400
 30
0.0
 10
140.245132
 20
117.392650
 30
0.0
 10
139.726408
 20
114.766093
 30
0.0
 10
139.184005
 20
112.670593
 30
0.0
  0
SPLINE
  5
137
100
AcDbEntity
  8
Layer_1
 62
7
100
AcDbSpline
 70
8
 71
3
 72
8
 73
4
 74
0
 40
0
 40
0
 40
0
 40
0
 40
1
 40
1
 40
1
 40
1
 10
139.184005
 20
112.670593
 30
0.0
 10
138.641602
 20
110.575093
 30
0.0
 10
137.925152
 20
107.479284
 30
0.0
 10
137.591904
 20
105.791031
 30
0.0
  0
SPLINE
  5
138
100
AcDbEntity
  8
Layer_1
 62
7
100
AcDbSpline
 70
8
 71
3
 72
8
 73
4
 74
0
 40
0
 40
0
 40
0
 40
0
 40
1
 40
1
 40
1
 40
1
 10
137.591904
 20
105.791031
 30
0.0
 10
137.196257
 20
103.786689
 30
0.0
 10
136.504164
 20
101.596165
 30
0.0
 10
135.597525
 20
99.478736
 30
0.0
  0
SPLINE
  5
139
100
AcDbEntity
  8
Layer_1
 62
7
100
AcDbSpline
 70
8
 71
3
 72
8
 73
4
 74
0
 40
0
 40
0
 40
0
 40
0
 40
1
 40
1
 40
1
 40
1
 10
135.597525
 20
99.478736
 30
0.0
 10
134.833860
 20
97.695233
 30
0.0
 10
133.876788
 20
95.266541
 30
0.0
 10
133.470698
 20
94.081631
 30
0.0
  0
SPLINE
  5
13a
100
AcDbEntity
  8
Layer_1
 62
7
100
AcDbSpline
 70
8
 71
3
 72
8
 73
4
 74
0
 40
0
 40
0
 40
0
 40
0
 40
1
 40
1
 40
1
 40
1
 10
133.470698
 20
94.081631
 30
0.0
 10
132.535865
 20
91.354010
 30
0.0
 10
131.905042
 20
90.093182
 30
0.0
 10
130.415868
 20
87.976148
 30
0.0
  0
SPLINE
  5
13b
100
AcDbEntity
  8
Layer_1
 62
7
100
AcDbSpline
 70
8
 71
3
 72
8
 73
4
 74
0
 40
0
 40
0
 40
0
 40
0
 40
1
 40
1
 40
1
 40
1
 10
130.415868
 20
87.976148
 30
0.0
 10
129.760774
 20
87.044815
 30
0.0
 10
128.616363
 20
85.184293
 30
0.0
 10
127.872764
 20
83.841621
 30
0.0
  0
SPLINE
  5
13c
100
AcDbEntity
  8
Layer_1
 62
7
100
AcDbSpline
 70
8
 71
3
 72
8
 73
4
 74
0
 40
0
 40
0
 40
0
 40
0
 40
1
 40
1
 40
1
 40
1
 10
127.872764
 20
83.841621
 30
0.0
 10
126.036739
 20
80.526526
 30
0.0
 10
119.985358
 20
74.031351
 30
0.0
 10
119.336924
 20
74.679785
 30
0.0
  0
SPLINE
  5
13d
100
AcDbEntity
  8
Layer_1
 62
7
100
AcDbSpline
 70
8
 71
3
 72
8
 73
4
 74
0
 40
0
 40
0
 40
0
 40
0
 40
1
 40
1
 40
1
 40
1
 10
119.336924
 20
74.679785
 30
0.0
 10
119.059218
 20
74.957491
 30
0.0
 10
119.901425
 20
76.643938
 30
0.0
 10
121.396498
 20
78.803926
 30
0.0
  0
SPLINE
  5
13e
100
AcDbEntity
  8
Layer_1
 62
7
100
AcDbSpline
 70
8
 71
3
 72
8
 73
4
 74
0
 40
0
 40
0
 40
0
 40
0
 40
1
 40
1
 40
1
 40
1
 10
121.396498
 20
78.803926
 30
0.0
 10
122.202270
 20
79.968093
 30
0.0
 10
123.461405
 20
82.127093
 30
0.0
 10
124.194533
 20
83.601704
 30
0.0
  0
SPLINE
  5
13f
100
AcDbEntity
  8
Layer_1
 62
7
100
AcDbSpline
 70
8
 71
3
 72
8
 73
4
 74
0
 40
0
 40
0
 40
0
 40
0
 40
1
 40
1
 40
1
 40
1
 10
124.194533
 20
83.601704
 30
0.0
 10
124.927690
 20
85.076315
 30
0.0
 10
125.821827
 20
86.674596
 30
0.0
 10
126.181547
 20
87.153414
 30
0.0
  0
SPLINE
  5
140
100
AcDbEntity
  8
Layer_1
 62
7
100
AcDbSpline
 70
8
 71
3
 72
8
 73
4
 74
0
 40
0
 40
0
 40
0
 40
0
 40
1
 40
1
 40
1
 40
1
 10
126.181547
 20
87.153414
 30
0.0
 10
127.781013
 20
89.282527
 30
0.0
 10
129.724367
 20
93.548203
 30
0.0
 10
131.120775
 20
97.995037
 30
0.0
  0
SPLINE
  5
141
100
AcDbEntity
  8
Layer_1
 62
7
100
AcDbSpline
 70
8
 71
3
 72
8
 73
4
 74
0
 40
0
 40
0
 40
0
 40
0
 40
1
 40
1
 40
1
 40
1
 10
131.120775
 20
97.995037
 30
0.0
 10
133.216275
 20
104.668153
 30
0.0
 10
133.894906
 20
107.765881
 30
0.0
 10
134.243112
 20
112.247259
 30
0.0
  0
SPLINE
  5
142
100
AcDbEntity
  8
Layer_1
 62
7
100
AcDbSpline
 70
8
 71
3
 72
8
 73
4
 74
0
 40
0
 40
0
 40
0
 40
0
 40
1
 40
1
 40
1
 40
1
 10
134.243112
 20
112.247259
 30
0.0
 10
134.945196
 20
121.283563
 30
0.0
 10
133.700540
 20
123.743158
 30
0.0
 10
128.215720
 20
124.157969
 30
0.0
  0
SPLINE
  5
143
100
AcDbEntity
  8
Layer_1
 62
7
100
AcDbSpline
 70
8
 71
3
 72
8
 73
4
 74
0
 40
0
 40
0
 40
0
 40
0
 40
1
 40
1
 40
1
 40
1
 10
128.215720
 20
124.157969
 30
0.0
 10
126.316026
 20
124.301648
 30
0.0
 10
126.061687
 20
124.261375
 30
0.0
 10
125.801817
 20
123.775783
 30
0.0
  0
SPLINE
  5
144
100
AcDbEntity
  8
Layer_1
 62
7
100
AcDbSpline
 70
8
 71
3
 72
8
 73
4
 74
0
 40
0
 40
0
 40
0
 40
0
 40
1
 40
1
 40
1
 40
1
 10
125.801817
 20
123.775783
 30
0.0
 10
125.642051
 20
123.477277
 30
0.0
 10
125.367816
 20
120.951727
 30
0.0
 10
125.192386
 20
118.163484
 30
0.0
  0
SPLINE
  5
145
100
AcDbEntity
  8
Layer_1
 62
7
100
AcDbSpline
 70
8
 71
3
 72
8
 73
4
 74
0
 40
0
 40
0
 40
0
 40
0
 40
1
 40
1
 40
1
 40
1
 10
125.192386
 20
118.163484
 30
0.0
 10
124.790869
 20
111.781198
 30
0.0
 10
124.598422
 20
110.562788
 30
0.0
 10
123.228571
 20
105.731143
 30
0.0
  0
SPLINE
  5
146
100
AcDbEntity
  8
Layer_1
 62
7
100
AcDbSpline
 70
8
 71
3
 72
8
 73
4
 74
0
 40
0
 40
0
 40
0
 40
0
 40
1
 40
1
 40
1
 40
1
 10
123.228571
 20
105.731143
 30
0.0
 10
121.577402
 20
99.907234
 30
0.0
 10
120.272181
 20
96.583926
 30
0.0
 10
119.635995
 20
96.583926
 30
0.0
  0
SPLINE
  5
147
100
AcDbEntity
  8
Layer_1
 62
7
100
AcDbSpline
 70
8
 71
3
 72
8
 73
4
 74
0
 40
0
 40
0
 40
0
 40
0
 40
1
 40
1
 40
1
 40
1
 10
119.635995
 20
96.583926
 30
0.0
 10
119.112891
 20
96.583926
 30
0.0
 10
119.142276
 20
96.896403
 30
0.0
 10
120.122180
 20
101.754153
 30
0.0
  0
SPLINE
  5
148
100
AcDbEntity
  8
Layer_1
 62
7
100
AcDbSpline
 70
8
 71
3
 72
8
 73
4
 74
0
 40
0
 40
0
 40
0
 40
0
 40
1
 40
1
 40
1
 40
1
 10
120.122180
 20
101.754153
 30
0.0
 10
120.710387
 20
104.670073
 30
0.0
 10
120.996306
 20
106.939732
 30
0.0
 10
121.017360
 20
108.860593
 30
0.0
  0
SPLINE
  5
149
100
AcDbEntity
  8
Layer_1
 62
7
100
AcDbSpline
 70
8
 71
3
 72
8
 73
4
 74
0
 40
0
 40
0
 40
0
 40
0
 40
1
 40
1
 40
1
 40
1
 10
121.017360
 20
108.860593
 30
0.0
 10
121.046824
 20
111.548618
 30
0.0
 10
120.993371
 20
111.817012
 30
0.0
 10
119.894793
 20
114.505037
 30
0.0
  0
SPLINE
  5
14a
100
AcDbEntity
  8
Layer_1
 62
7
100
AcDbSpline
 70
8
 71
3
 72
8
 73
4
 74
0
 40
0
 40
0
 40
0
 40
0
 40
1
 40
1
 40
1
 40
1
 10
119.894793
 20
114.505037
 30
0.0
 10
117.934469
 20
119.301235
 30
0.0
 10
117.302071
 20
120.489362
 30
0.0
 10
116.160717
 20
121.520517
 30
0.0
  0
SPLINE
  5
14b
100
AcDbEntity
  8
Layer_1
 62
7
100
AcDbSpline
 70
8
 71
3
 72
8
 73
4
 74
0
 40
0
 40
0
 40
0
 40
0
 40
1
 40
1
 40
1
 40
1
 10
116.160717
 20
121.520517
 30
0.0
 10
114.364149
 20
123.143605
 30
0.0
 10
112.509066
 20
123.224265
 30
0.0
 10
109.370450
 20
121.815722
 30
0.0
  0
SPLINE
  5
14c
100
AcDbEntity
  8
Layer_1
 62
7
100
AcDbSpline
 70
8
 71
3
 72
8
 73
4
 74
0
 40
0
 40
0
 40
0
 40
0
 40
1
 40
1
 40
1
 40
1
 10
109.370450
 20
121.815722
 30
0.0
 10
107.044744
 20
120.772007
 30
0.0
 10
105.570807
 20
119.083415
 30
0.0
 10
105.125212
 20
116.952243
 30
0.0
  0
SPLINE
  5
14d
100
AcDbEntity
  8
Layer_1
 62
7
100
AcDbSpline
 70
8
 71
3
 72
8
 73
4
 74
0
 40
0
 40
0
 40
0
 40
0
 40
1
 40
1
 40
1
 40
1
 10
105.125212
 20
116.952243
 30
0.0
 10
104.694781
 20
114.893573
 30
0.0
 10
104.964563
 20
108.620422
 30
0.0
 10
105.582432
 20
106.320593
 30
0.0
  0
SPLINE
  5
14e
100
AcDbEntity
  8
Layer_1
 62
7
100
AcDbSpline
 70
8
 71
3
 72
8
 73
4
 74
0
 40
0
 40
0
 40
0
 40
0
 40
1
 40
1
 40
1
 40
1
 10
105.582432
 20
106.320593
 30
0.0
 10
106.385352
 20
103.331972
 30
0.0
 10
107.435136
 20
100.485818
 30
0.0
 10
109.156635
 20
96.630352
 30
0.0
  0
SPLINE
  5
14f
100
AcDbEntity
  8
Layer_1
 62
7
100
AcDbSpline
 70
8
 71
3
 72
8
 73
4
 74
0
 40
0
 40
0
 40
0
 40
0
 40
1
 40
1
 40
1
 40
1
 10
109.156635
 20
96.630352
 30
0.0
 10
110.080891
 20
94.560365
 30
0.0
 10
110.758280
 20
92.787953
 30
0.0
 10
110.661947
 20
92.691602
 30
0.0
  0
SPLINE
  5
150
100
AcDbEntity
  8
Layer_1
 62
7
100
AcDbSpline
 70
8
 71
3
 72
8
 73
4
 74
0
 40
0
 40
0
 40
0
 40
0
 40
1
 40
1
 40
1
 40
1
 10
110.661947
 20
92.691602
 30
0.0
 10
110.308475
 20
92.338147
 30
0.0
 10
108.365945
 20
93.672014
 30
0.0
 10
106.429477
 20
95.597926
 30
0.0
  0
SPLINE
  5
151
100
AcDbEntity
  8
Layer_1
 62
7
100
AcDbSpline
 70
8
 71
3
 72
8
 73
4
 74
0
 40
0
 40
0
 40
0
 40
0
 40
1
 40
1
 40
1
 40
1
 10
106.429477
 20
95.597926
 30
0.0
 10
104.106884
 20
97.907887
 30
0.0
 10
102.541138
 20
100.449750
 30
0.0
 10
101.736824
 20
103.216148
 30
0.0
  0
SPLINE
  5
152
100
AcDbEntity
  8
Layer_1
 62
7
100
AcDbSpline
 70
8
 71
3
 72
8
 73
4
 74
0
 40
0
 40
0
 40
0
 40
0
 40
1
 40
1
 40
1
 40
1
 10
101.736824
 20
103.216148
 30
0.0
 10
100.618457
 20
107.062724
 30
0.0
 10
99.875509
 20
109.142815
 30
0.0
 10
99.620002
 20
109.142815
 30
0.0
  0
SPLINE
  5
153
100
AcDbEntity
  8
Layer_1
 62
7
100
AcDbSpline
 70
8
 71
3
 72
8
 73
4
 74
0
 40
0
 40
0
 40
0
 40
0
 40
1
 40
1
 40
1
 40
1
 10
99.620002
 20
109.142815
 30
0.0
 10
98.972542
 20
109.142815
 30
0.0
 10
98.492595
 20
97.539164
 30
0.0
 10
98.900161
 20
91.739187
 30
0.0
  0
SPLINE
  5
154
100
AcDbEntity
  8
Layer_1
 62
7
100
AcDbSpline
 70
8
 71
3
 72
8
 73
4
 74
0
 40
0
 40
0
 40
0
 40
0
 40
1
 40
1
 40
1
 40
1
 10
98.900161
 20
91.739187
 30
0.0
 10
99.238593
 20
86.923064
 30
0.0
 10
99.551086
 20
85.680835
 30
0.0
 10
101.102327
 20
82.985020
 30
0.0
  0
SPLINE
  5
155
100
AcDbEntity
  8
Layer_1
 62
7
100
AcDbSpline
 70
8
 71
3
 72
8
 73
4
 74
0
 40
0
 40
0
 40
0
 40
0
 40
1
 40
1
 40
1
 40
1
 10
101.102327
 20
82.985020
 30
0.0
 10
101.666365
 20
82.004806
 30
0.0
 10
102.362627
 20
80.732689
 30
0.0
 10
102.649573
 20
80.158113
 30
0.0
  0
SPLINE
  5
156
100
AcDbEntity
  8
Layer_1
 62
7
100
AcDbSpline
 70
8
 71
3
 72
8
 73
4
 74
0
 40
0
 40
0
 40
0
 40
0
 40
1
 40
1
 40
1
 40
1
 10
102.649573
 20
80.158113
 30
0.0
 10
103.268800
 20
78.918170
 30
0.0
 10
103.346030
 20
76.328555
 30
0.0
 10
102.786601
 20
75.563479
 30
0.0
  0
SPLINE
  5
157
100
AcDbEntity
  8
Layer_1
 62
7
100
AcDbSpline
 70
8
 71
3
 72
8
 73
4
 74
0
 40
0
 40
0
 40
0
 40
0
 40
1
 40
1
 40
1
 40
1
 10
102.786601
 20
75.563479
 30
0.0
 10
102.377311
 20
75.003747
 30
0.0
 10
100.392284
 20
74.297938
 30
0.0
 10
99.220187
 20
74.295398
 30
0.0
  0
SPLINE
  5
158
100
AcDbEntity
  8
Layer_1
 62
7
100
AcDbSpline
 70
8
 71
3
 72
8
 73
4
 74
0
 40
0
 40
0
 40
0
 40
0
 40
1
 40
1
 40
1
 40
1
 10
99.220187
 20
74.295398
 30
0.0
 10
98.103721
 20
74.292576
 30
0.0
 10
95.694221
 20
75.552754
 30
0.0
 10
95.029328
 20
76.486487
 30
0.0
  0
SPLINE
  5
159
100
AcDbEntity
  8
Layer_1
 62
7
100
AcDbSpline
 70
8
 71
3
 72
8
 73
4
 74
0
 40
0
 40
0
 40
0
 40
0
 40
1
 40
1
 40
1
 40
1
 10
95.029328
 20
76.486487
 30
0.0
 10
94.225212
 20
77.615771
 30
0.0
 10
94.220067
 20
80.275151
 30
0.0
 10
95.012818
 20
85.012815
 30
0.0
  0
SPLINE
  5
15a
100
AcDbEntity
  8
Layer_1
 62
7
100
AcDbSpline
 70
8
 71
3
 72
8
 73
4
 74
0
 40
0
 40
0
 40
0
 40
0
 40
1
 40
1
 40
1
 40
1
 10
95.012818
 20
85.012815
 30
0.0
 10
95.519703
 20
88.042019
 30
0.0
 10
95.577846
 20
89.218632
 30
0.0
 10
95.424247
 20
93.338371
 30
0.0
  0
SPLINE
  5
15b
100
AcDbEntity
  8
Layer_1
 62
7
100
AcDbSpline
 70
8
 71
3
 72
8
 73
4
 74
0
 40
0
 40
0
 40
0
 40
0
 40
1
 40
1
 40
1
 40
1
 10
95.424247
 20
93.338371
 30
0.0
 10
95.058761
 20
103.141190
 30
0.0
 10
94.539776
 20
105.979414
 30
0.0
 10
92.811862
 20
107.625080
 30
0.0
  0
SPLINE
  5
15c
100
AcDbEntity
  8
Layer_1
 62
7
100
AcDbSpline
 70
8
 71
3
 72
8
 73
4
 74
0
 40
0
 40
0
 40
0
 40
0
 40
1
 40
1
 40
1
 40
1
 10
92.811862
 20
107.625080
 30
0.0
 10
91.399428
 20
108.970264
 30
0.0
 10
90.343744
 20
109.283926
 30
0.0
 10
87.228762
 20
109.283926
 30
0.0
  0
SPLINE
  5
15d
100
AcDbEntity
  8
Layer_1
 62
7
100
AcDbSpline
 70
8
 71
3
 72
8
 73
4
 74
0
 40
0
 40
0
 40
0
 40
0
 40
1
 40
1
 40
1
 40
1
 10
87.228762
 20
109.283926
 30
0.0
 10
84.218204
 20
109.283926
 30
0.0
 10
81.878870
 20
108.752191
 30
0.0
 10
77.239741
 20
107.013448
 30
0.0
  0
SPLINE
  5
15e
100
AcDbEntity
  8
Layer_1
 62
7
100
AcDbSpline
 70
8
 71
3
 72
8
 73
4
 74
0
 40
0
 40
0
 40
0
 40
0
 40
1
 40
1
 40
1
 40
1
 10
77.239741
 20
107.013448
 30
0.0
 10
74.096327
 20
105.835283
 30
0.0
 10
74.022074
 20
105.822329
 30
0.0
 10
71.501751
 20
106.012604
 30
0.0
  0
SPLINE
  5
15f
100
AcDbEntity
  8
Layer_1
 62
7
100
AcDbSpline
 70
8
 71
3
 72
8
 73
4
 74
0
 40
0
 40
0
 40
0
 40
0
 40
1
 40
1
 40
1
 40
1
 10
71.501751
 20
106.012604
 30
0.0
 10
70.097399
 20
106.118606
 30
0.0
 10
67.980789
 20
106.381271
 30
0.0
 10
66.798170
 20
106.596267
 30
0.0
  0
SPLINE
  5
160
100
AcDbEntity
  8
Layer_1
 62
7
100
AcDbSpline
 70
8
 71
3
 72
8
 73
4
 74
0
 40
0
 40
0
 40
0
 40
0
 40
1
 40
1
 40
1
 40
1
 10
66.798170
 20
106.596267
 30
0.0
 10
62.728083
 20
107.336198
 30
0.0
 10
61.703215
 20
107.403000
 30
0.0
 10
61.525500
 20
106.939873
 30
0.0
  0
SPLINE
  5
161
100
AcDbEntity
  8
Layer_1
 62
7
100
AcDbSpline
 70
8
 71
3
 72
8
 73
4
 74
0
 40
0
 40
0
 40
0
 40
0
 40
1
 40
1
 40
1
 40
1
 10
61.525500
 20
106.939873
 30
0.0
 10
61.138511
 20
105.931408
 30
0.0
 10
63.797767
 20
99.486892
 30
0.0
 10
66.453458
 20
94.997329
 30
0.0
  0
SPLINE
  5
162
100
AcDbEntity
  8
Layer_1
 62
7
100
AcDbSpline
 70
8
 71
3
 72
8
 73
4
 74
0
 40
0
 40
0
 40
0
 40
0
 40
1
 40
1
 40
1
 40
1
 10
66.453458
 20
94.997329
 30
0.0
 10
67.886817
 20
92.574197
 30
0.0
 10
68.480570
 20
89.609735
 30
0.0
 10
68.468483
 20
84.936813
 30
0.0
  0
SPLINE
  5
163
100
AcDbEntity
  8
Layer_1
 62
7
100
AcDbSpline
 70
8
 71
3
 72
8
 73
4
 74
0
 40
0
 40
0
 40
0
 40
0
 40
1
 40
1
 40
1
 40
1
 10
68.468483
 20
84.936813
 30
0.0
 10
68.452255
 20
78.666089
 30
0.0
 10
66.707044
 20
73.902601
 30
0.0
 10
63.885857
 20
72.428724
 30
0.0
  0
SPLINE
  5
164
100
AcDbEntity
  8
Layer_1
 62
7
100
AcDbSpline
 70
8
 71
3
 72
8
 73
4
 74
0
 40
0
 40
0
 40
0
 40
0
 40
1
 40
1
 40
1
 40
1
 10
63.885857
 20
72.428724
 30
0.0
 10
62.822105
 20
71.873000
 30
0.0
 10
59.414740
 20
71.974713
 30
0.0
 10
57.169064
 20
72.629243
 30
0.0
  0
LWPOLYLINE
  5
165
100
AcDbEntity
  8
Layer_1
 62
7
100
AcDbPolyline
 90
3
 70
1
 10
55.111760
 20
81.514445
 30
0.0
 10
56.593294
 20
81.945116
 30
0.0
 10
58.786183
 20
80.961402
 30
0.0
  0
SPLINE
  5
166
100
AcDbEntity
  8
Layer_1
 62
7
100
AcDbSpline
 70
8
 71
3
 72
8
 73
4
 74
0
 40
0
 40
0
 40
0
 40
0
 40
1
 40
1
 40
1
 40
1
 10
149.596848
 20
72.238845
 30
0.0
 10
148.916466
 20
72.336691
 30
0.0
 10
144.096901
 20
74.417346
 30
0.0
 10
140.786237
 20
76.042466
 30
0.0
  0
SPLINE
  5
167
100
AcDbEntity
  8
Layer_1
 62
7
100
AcDbSpline
 70
8
 71
3
 72
8
 73
4
 74
0
 40
0
 40
0
 40
0
 40
0
 40
1
 40
1
 40
1
 40
1
 10
140.786237
 20
76.042466
 30
0.0
 10
139.143619
 20
76.848803
 30
0.0
 10
138.093442
 20
79.525089
 30
0.0
 10
138.746052
 20
81.241649
 30
0.0
  0
SPLINE
  5
168
100
AcDbEntity
  8
Layer_1
 62
7
100
AcDbSpline
 70
8
 71
3
 72
8
 73
4
 74
0
 40
0
 40
0
 40
0
 40
0
 40
1
 40
1
 40
1
 40
1
 10
138.746052
 20
81.241649
 30
0.0
 10
139.002479
 20
81.916075
 30
0.0
 10
139.089996
 20
81.940290
 30
0.0
 10
140.636998
 20
81.764861
 30
0.0
  0
SPLINE
  5
169
100
AcDbEntity
  8
Layer_1
 62
7
100
AcDbSpline
 70
8
 71
3
 72
8
 73
4
 74
0
 40
0
 40
0
 40
0
 40
0
 40
1
 40
1
 40
1
 40
1
 10
140.636998
 20
81.764861
 30
0.0
 10
141.529130
 20
81.663656
 30
0.0
 10
143.432465
 20
81.400568
 30
0.0
 10
144.866606
 20
81.180181
 30
0.0
  0
SPLINE
  5
16a
100
AcDbEntity
  8
Layer_1
 62
7
100
AcDbSpline
 70
8
 71
3
 72
8
 73
4
 74
0
 40
0
 40
0
 40
0
 40
0
 40
1
 40
1
 40
1
 40
1
 10
144.866606
 20
81.180181
 30
0.0
 10
146.300718
 20
80.959793
 30
0.0
 10
148.078718
 20
80.785070
 30
0.0
 10
148.817717
 20
80.791871
 30
0.0
  0
SPLINE
  5
16b
100
AcDbEntity
  8
Layer_1
 62
7
100
AcDbSpline
 70
8
 71
3
 72
8
 73
4
 74
0
 40
0
 40
0
 40
0
 40
0
 40
1
 40
1
 40
1
 40
1
 10
148.817717
 20
80.791871
 30
0.0
 10
151.264837
 20
80.814449
 30
0.0
 10
151.837720
 20
81.154781
 30
0.0
 10
158.769070
 20
86.704003
 30
0.0
  0
SPLINE
  5
16c
100
AcDbEntity
  8
Layer_1
 62
7
100
AcDbSpline
 70
8
 71
3
 72
8
 73
4
 74
0
 40
0
 40
0
 40
0
 40
0
 40
1
 40
1
 40
1
 40
1
 10
158.769070
 20
86.704003
 30
0.0
 10
159.959540
 20
87.657096
 30
0.0
 10
161.166660
 20
88.398804
 30
0.0
 10
161.527736
 20
88.399030
 30
0.0
  0
SPLINE
  5
16d
100
AcDbEntity
  8
Layer_1
 62
7
100
AcDbSpline
 70
8
 71
3
 72
8
 73
4
 74
0
 40
0
 40
0
 40
0
 40
0
 40
1
 40
1
 40
1
 40
1
 10
161.527736
 20
88.399030
 30
0.0
 10
162.416764
 20
88.399030
 30
0.0
 10
162.808234
 20
87.244515
 30
0.0
 10
162.626455
 20
85.156974
 30
0.0
  0
SPLINE
  5
16e
100
AcDbEntity
  8
Layer_1
 62
7
100
AcDbSpline
 70
8
 71
3
 72
8
 73
4
 74
0
 40
0
 40
0
 40
0
 40
0
 40
1
 40
1
 40
1
 40
1
 10
162.626455
 20
85.156974
 30
0.0
 10
162.349397
 20
81.975568
 30
0.0
 10
158.374410
 20
75.355453
 30
0.0
 10
155.854533
 20
73.878697
 30
0.0
  0
SPLINE
  5
16f
100
AcDbEntity
  8
Layer_1
 62
7
100
AcDbSpline
 70
8
 71
3
 72
8
 73
4
 74
0
 40
0
 40
0
 40
0
 40
0
 40
1
 40
1
 40
1
 40
1
 10
155.854533
 20
73.878697
 30
0.0
 10
153.705495
 20
72.619280
 30
0.0
 10
151.312279
 20
71.992126
 30
0.0
 10
149.596848
 20
72.238845
 30
0.0
  0
LWPOLYLINE
  5
170
100
AcDbEntity
  8
Layer_1
 62
7
100
AcDbPolyline
 90
2
 70
1
 10
57.169064
 20
72.629243
 30
0.0
 10
57.169075
 20
72.629243
 30
0.0
  0
SPLINE
  5
171
100
AcDbEntity
  8
Layer_1
 62
7
100
AcDbSpline
 70
8
 71
3
 72
8
 73
4
 74
0
 40
0
 40
0
 40
0
 40
0
 40
1
 40
1
 40
1
 40
1
 10
273.718124
 20
78.181203
 30
0.0
 10
273.531830
 20
78.299623
 30
0.0
 10
272.976303
 20
79.345454
 30
0.0
 10
272.483628
 20
80.505218
 30
0.0
  0
SPLINE
  5
172
100
AcDbEntity
  8
Layer_1
 62
7
100
AcDbSpline
 70
8
 71
3
 72
8
 73
4
 74
0
 40
0
 40
0
 40
0
 40
0
 40
1
 40
1
 40
1
 40
1
 10
272.483628
 20
80.505218
 30
0.0
 10
271.990953
 20
81.665010
 30
0.0
 10
270.636484
 20
84.709426
 30
0.0
 10
269.473643
 20
87.270593
 30
0.0
  0
SPLINE
  5
173
100
AcDbEntity
  8
Layer_1
 62
7
100
AcDbSpline
 70
8
 71
3
 72
8
 73
4
 74
0
 40
0
 40
0
 40
0
 40
0
 40
1
 40
1
 40
1
 40
1
 10
269.473643
 20
87.270593
 30
0.0
 10
263.439845
 20
100.560437
 30
0.0
 10
261.344627
 20
106.501582
 30
0.0
 10
259.566938
 20
115.361723
 30
0.0
  0
SPLINE
  5
174
100
AcDbEntity
  8
Layer_1
 62
7
100
AcDbSpline
 70
8
 71
3
 72
8
 73
4
 74
0
 40
0
 40
0
 40
0
 40
0
 40
1
 40
1
 40
1
 40
1
 10
259.566938
 20
115.361723
 30
0.0
 10
258.882267
 20
118.774213
 30
0.0
 10
258.051376
 20
121.049940
 30
0.0
 10
256.110816
 20
124.827823
 30
0.0
  0
SPLINE
  5
175
100
AcDbEntity
  8
Layer_1
 62
7
100
AcDbSpline
 70
8
 71
3
 72
8
 73
4
 74
0
 40
0
 40
0
 40
0
 40
0
 40
1
 40
1
 40
1
 40
1
 10
256.110816
 20
124.827823
 30
0.0
 10
254.634596
 20
127.701777
 30
0.0
 10
254.013820
 20
128.365422
 30
0.0
 10
253.560176
 20
127.554767
 30
0.0
  0
SPLINE
  5
176
100
AcDbEntity
  8
Layer_1
 62
7
100
AcDbSpline
 70
8
 71
3
 72
8
 73
4
 74
0
 40
0
 40
0
 40
0
 40
0
 40
1
 40
1
 40
1
 40
1
 10
253.560176
 20
127.554767
 30
0.0
 10
253.423807
 20
127.311096
 30
0.0
 10
252.694460
 20
126.370732
 30
0.0
 10
251.939402
 20
125.465053
 30
0.0
  0
SPLINE
  5
177
100
AcDbEntity
  8
Layer_1
 62
7
100
AcDbSpline
 70
8
 71
3
 72
8
 73
4
 74
0
 40
0
 40
0
 40
0
 40
0
 40
1
 40
1
 40
1
 40
1
 10
251.939402
 20
125.465053
 30
0.0
 10
249.622640
 20
122.686151
 30
0.0
 10
246.621771
 20
117.249423
 30
0.0
 10
245.922340
 20
114.563824
 30
0.0
  0
SPLINE
  5
178
100
AcDbEntity
  8
Layer_1
 62
7
100
AcDbSpline
 70
8
 71
3
 72
8
 73
4
 74
0
 40
0
 40
0
 40
0
 40
0
 40
1
 40
1
 40
1
 40
1
 10
245.922340
 20
114.563824
 30
0.0
 10
245.352985
 20
112.377590
 30
0.0
 10
245.518367
 20
112.275877
 30
0.0
 10
249.956481
 20
112.082780
 30
0.0
  0
SPLINE
  5
179
100
AcDbEntity
  8
Layer_1
 62
7
100
AcDbSpline
 70
8
 71
3
 72
8
 73
4
 74
0
 40
0
 40
0
 40
0
 40
0
 40
1
 40
1
 40
1
 40
1
 10
249.956481
 20
112.082780
 30
0.0
 10
255.276059
 20
111.851330
 30
0.0
 10
256.417959
 20
111.271815
 30
0.0
 10
256.417959
 20
108.803556
 30
0.0
  0
SPLINE
  5
17a
100
AcDbEntity
  8
Layer_1
 62
7
100
AcDbSpline
 70
8
 71
3
 72
8
 73
4
 74
0
 40
0
 40
0
 40
0
 40
0
 40
1
 40
1
 40
1
 40
1
 10
256.417959
 20
108.803556
 30
0.0
 10
256.417959
 20
107.374580
 30
0.0
 10
255.324376
 20
105.788491
 30
0.0
 10
253.804524
 20
105.013114
 30
0.0
  0
SPLINE
  5
17b
100
AcDbEntity
  8
Layer_1
 62
7
100
AcDbSpline
 70
8
 71
3
 72
8
 73
4
 74
0
 40
0
 40
0
 40
0
 40
0
 40
1
 40
1
 40
1
 40
1
 10
253.804524
 20
105.013114
 30
0.0
 10
252.135547
 20
104.161677
 30
0.0
 10
249.005618
 20
103.874008
 30
0.0
 10
244.987959
 20
104.202797
 30
0.0
  0
SPLINE
  5
17c
100
AcDbEntity
  8
Layer_1
 62
7
100
AcDbSpline
 70
8
 71
3
 72
8
 73
4
 74
0
 40
0
 40
0
 40
0
 40
0
 40
1
 40
1
 40
1
 40
1
 10
244.987959
 20
104.202797
 30
0.0
 10
239.744213
 20
104.631916
 30
0.0
 10
238.168087
 20
105.299993
 30
0.0
 10
237.015181
 20
107.582126
 30
0.0
  0
SPLINE
  5
17d
100
AcDbEntity
  8
Layer_1
 62
7
100
AcDbSpline
 70
8
 71
3
 72
8
 73
4
 74
0
 40
0
 40
0
 40
0
 40
0
 40
1
 40
1
 40
1
 40
1
 10
237.015181
 20
107.582126
 30
0.0
 10
236.134394
 20
109.325639
 30
0.0
 10
236.210170
 20
110.897729
 30
0.0
 10
237.329464
 20
114.101177
 30
0.0
  0
SPLINE
  5
17e
100
AcDbEntity
  8
Layer_1
 62
7
100
AcDbSpline
 70
8
 71
3
 72
8
 73
4
 74
0
 40
0
 40
0
 40
0
 40
0
 40
1
 40
1
 40
1
 40
1
 10
237.329464
 20
114.101177
 30
0.0
 10
238.495719
 20
117.439048
 30
0.0
 10
239.562067
 20
119.117818
 30
0.0
 10
242.695101
 20
122.548371
 30
0.0
  0
SPLINE
  5
17f
100
AcDbEntity
  8
Layer_1
 62
7
100
AcDbSpline
 70
8
 71
3
 72
8
 73
4
 74
0
 40
0
 40
0
 40
0
 40
0
 40
1
 40
1
 40
1
 40
1
 10
242.695101
 20
122.548371
 30
0.0
 10
244.262902
 20
124.265044
 30
0.0
 10
245.498019
 20
125.940117
 30
0.0
 10
246.128729
 20
127.205037
 30
0.0
  0
SPLINE
  5
180
100
AcDbEntity
  8
Layer_1
 62
7
100
AcDbSpline
 70
8
 71
3
 72
8
 73
4
 74
0
 40
0
 40
0
 40
0
 40
0
 40
1
 40
1
 40
1
 40
1
 10
246.128729
 20
127.205037
 30
0.0
 10
247.123816
 20
129.200772
 30
0.0
 10
247.294138
 20
129.944653
 30
0.0
 10
248.099430
 20
135.812824
 30
0.0
  0
SPLINE
  5
181
100
AcDbEntity
  8
Layer_1
 62
7
100
AcDbSpline
 70
8
 71
3
 72
8
 73
4
 74
0
 40
0
 40
0
 40
0
 40
0
 40
1
 40
1
 40
1
 40
1
 10
248.099430
 20
135.812824
 30
0.0
 10
248.532444
 20
138.968153
 30
0.0
 10
249.937233
 20
143.770644
 30
0.0
 10
251.090252
 20
146.037368
 30
0.0
  0
SPLINE
  5
182
100
AcDbEntity
  8
Layer_1
 62
7
100
AcDbSpline
 70
8
 71
3
 72
8
 73
4
 74
0
 40
0
 40
0
 40
0
 40
0
 40
1
 40
1
 40
1
 40
1
 10
251.090252
 20
146.037368
 30
0.0
 10
251.384638
 20
146.616149
 30
0.0
 10
251.823296
 20
147.949649
 30
0.0
 10
252.064991
 20
149.000701
 30
0.0
  0
SPLINE
  5
183
100
AcDbEntity
  8
Layer_1
 62
7
100
AcDbSpline
 70
8
 71
3
 72
8
 73
4
 74
0
 40
0
 40
0
 40
0
 40
0
 40
1
 40
1
 40
1
 40
1
 10
252.064991
 20
149.000701
 30
0.0
 10
252.547620
 20
151.099249
 30
0.0
 10
253.112177
 20
152.181712
 30
0.0
 10
253.724091
 20
152.181712
 30
0.0
  0
SPLINE
  5
184
100
AcDbEntity
  8
Layer_1
 62
7
100
AcDbSpline
 70
8
 71
3
 72
8
 73
4
 74
0
 40
0
 40
0
 40
0
 40
0
 40
1
 40
1
 40
1
 40
1
 10
253.724091
 20
152.181712
 30
0.0
 10
254.141526
 20
152.181712
 30
0.0
 10
256.239453
 20
148.056442
 30
0.0
 10
257.428314
 20
144.897896
 30
0.0
  0
SPLINE
  5
185
100
AcDbEntity
  8
Layer_1
 62
7
100
AcDbSpline
 70
8
 71
3
 72
8
 73
4
 74
0
 40
0
 40
0
 40
0
 40
0
 40
1
 40
1
 40
1
 40
1
 10
257.428314
 20
144.897896
 30
0.0
 10
257.807113
 20
143.891548
 30
0.0
 10
258.501803
 20
142.395657
 30
0.0
 10
258.972126
 20
141.573628
 30
0.0
  0
SPLINE
  5
186
100
AcDbEntity
  8
Layer_1
 62
7
100
AcDbSpline
 70
8
 71
3
 72
8
 73
4
 74
0
 40
0
 40
0
 40
0
 40
0
 40
1
 40
1
 40
1
 40
1
 10
258.972126
 20
141.573628
 30
0.0
 10
260.010845
 20
139.758149
 30
0.0
 10
260.639693
 20
136.959041
 30
0.0
 10
260.646776
 20
134.119490
 30
0.0
  0
SPLINE
  5
187
100
AcDbEntity
  8
Layer_1
 62
7
100
AcDbSpline
 70
8
 71
3
 72
8
 73
4
 74
0
 40
0
 40
0
 40
0
 40
0
 40
1
 40
1
 40
1
 40
1
 10
260.646776
 20
134.119490
 30
0.0
 10
260.657783
 20
129.724407
 30
0.0
 10
261.883136
 20
125.302182
 30
0.0
 10
265.377978
 20
117.045037
 30
0.0
  0
SPLINE
  5
188
100
AcDbEntity
  8
Layer_1
 62
7
100
AcDbSpline
 70
8
 71
3
 72
8
 73
4
 74
0
 40
0
 40
0
 40
0
 40
0
 40
1
 40
1
 40
1
 40
1
 10
265.377978
 20
117.045037
 30
0.0
 10
267.064651
 20
113.060059
 30
0.0
 10
268.141329
 20
109.968400
 30
0.0
 10
269.555149
 20
105.050593
 30
0.0
  0
SPLINE
  5
189
100
AcDbEntity
  8
Layer_1
 62
7
100
AcDbSpline
 70
8
 71
3
 72
8
 73
4
 74
0
 40
0
 40
0
 40
0
 40
0
 40
1
 40
1
 40
1
 40
1
 10
269.555149
 20
105.050593
 30
0.0
 10
271.167231
 20
99.443091
 30
0.0
 10
271.787837
 20
97.482042
 30
0.0
 10
272.857572
 20
94.615172
 30
0.0
  0
SPLINE
  5
18a
100
AcDbEntity
  8
Layer_1
 62
7
100
AcDbSpline
 70
8
 71
3
 72
8
 73
4
 74
0
 40
0
 40
0
 40
0
 40
0
 40
1
 40
1
 40
1
 40
1
 10
272.857572
 20
94.615172
 30
0.0
 10
274.740390
 20
89.569265
 30
0.0
 10
275.345982
 20
86.934607
 30
0.0
 10
275.518759
 20
83.037259
 30
0.0
  0
SPLINE
  5
18b
100
AcDbEntity
  8
Layer_1
 62
7
100
AcDbSpline
 70
8
 71
3
 72
8
 73
4
 74
0
 40
0
 40
0
 40
0
 40
0
 40
1
 40
1
 40
1
 40
1
 10
275.518759
 20
83.037259
 30
0.0
 10
275.666389
 20
79.707884
 30
0.0
 10
275.640425
 20
79.465822
 30
0.0
 10
275.057212
 20
78.733371
 30
0.0
  0
SPLINE
  5
18c
100
AcDbEntity
  8
Layer_1
 62
7
100
AcDbSpline
 70
8
 71
3
 72
8
 73
4
 74
0
 40
0
 40
0
 40
0
 40
0
 40
1
 40
1
 40
1
 40
1
 10
275.057212
 20
78.733371
 30
0.0
 10
274.397687
 20
77.905105
 30
0.0
 10
274.248956
 20
77.843778
 30
0.0
 10
273.718124
 20
78.181203
 30
0.0
  0
LWPOLYLINE
  5
18d
100
AcDbEntity
  8
Layer_1
 62
7
100
AcDbPolyline
 90
2
 70
1
 10
149.596848
 20
72.238845
 30
0.0
 10
149.596848
 20
72.238845
 30
0.0
  0
SPLINE
  5
18e
100
AcDbEntity
  8
Layer_1
 62
7
100
AcDbSpline
 70
8
 71
3
 72
8
 73
4
 74
0
 40
0
 40
0
 40
0
 40
0
 40
1
 40
1
 40
1
 40
1
 10
179.004685
 20
81.257735
 30
0.0
 10
178.929304
 20
81.382760
 30
0.0
 10
178.455199
 20
82.691537
 30
0.0
 10
177.951065
 20
84.166148
 30
0.0
  0
SPLINE
  5
18f
100
AcDbEntity
  8
Layer_1
 62
7
100
AcDbSpline
 70
8
 71
3
 72
8
 73
4
 74
0
 40
0
 40
0
 40
0
 40
0
 40
1
 40
1
 40
1
 40
1
 10
177.951065
 20
84.166148
 30
0.0
 10
174.834654
 20
93.281729
 30
0.0
 10
173.425152
 20
95.576929
 30
0.0
 10
168.764591
 20
99.124942
 30
0.0
  0
SPLINE
  5
190
100
AcDbEntity
  8
Layer_1
 62
7
100
AcDbSpline
 70
8
 71
3
 72
8
 73
4
 74
0
 40
0
 40
0
 40
0
 40
0
 40
1
 40
1
 40
1
 40
1
 10
168.764591
 20
99.124942
 30
0.0
 10
167.260177
 20
100.270228
 30
0.0
 10
163.205970
 20
103.526931
 30
0.0
 10
159.051292
 20
106.927455
 30
0.0
  0
SPLINE
  5
191
100
AcDbEntity
  8
Layer_1
 62
7
100
AcDbSpline
 70
8
 71
3
 72
8
 73
4
 74
0
 40
0
 40
0
 40
0
 40
0
 40
1
 40
1
 40
1
 40
1
 10
159.051292
 20
106.927455
 30
0.0
 10
156.358553
 20
109.131441
 30
0.0
 10
153.088981
 20
112.486386
 30
0.0
 10
152.491657
 20
113.658371
 30
0.0
  0
SPLINE
  5
192
100
AcDbEntity
  8
Layer_1
 62
7
100
AcDbSpline
 70
8
 71
3
 72
8
 73
4
 74
0
 40
0
 40
0
 40
0
 40
0
 40
1
 40
1
 40
1
 40
1
 10
152.491657
 20
113.658371
 30
0.0
 10
152.175202
 20
114.279259
 30
0.0
 10
151.447435
 20
115.485759
 30
0.0
 10
150.874383
 20
116.339482
 30
0.0
  0
SPLINE
  5
193
100
AcDbEntity
  8
Layer_1
 62
7
100
AcDbSpline
 70
8
 71
3
 72
8
 73
4
 74
0
 40
0
 40
0
 40
0
 40
0
 40
1
 40
1
 40
1
 40
1
 10
150.874383
 20
116.339482
 30
0.0
 10
150.301359
 20
117.193204
 30
0.0
 10
149.468775
 20
118.567203
 30
0.0
 10
149.024247
 20
119.392816
 30
0.0
  0
SPLINE
  5
194
100
AcDbEntity
  8
Layer_1
 62
7
100
AcDbSpline
 70
8
 71
3
 72
8
 73
4
 74
0
 40
0
 40
0
 40
0
 40
0
 40
1
 40
1
 40
1
 40
1
 10
149.024247
 20
119.392816
 30
0.0
 10
148.579719
 20
120.218400
 30
0.0
 10
147.794464
 20
121.264005
 30
0.0
 10
147.279267
 20
121.716351
 30
0.0
  0
SPLINE
  5
195
100
AcDbEntity
  8
Layer_1
 62
7
100
AcDbSpline
 70
8
 71
3
 72
8
 73
4
 74
0
 40
0
 40
0
 40
0
 40
0
 40
1
 40
1
 40
1
 40
1
 10
147.279267
 20
121.716351
 30
0.0
 10
146.402205
 20
122.486451
 30
0.0
 10
146.235524
 20
122.527627
 30
0.0
 10
144.661571
 20
122.363092
 30
0.0
  0
SPLINE
  5
196
100
AcDbEntity
  8
Layer_1
 62
7
100
AcDbSpline
 70
8
 71
3
 72
8
 73
4
 74
0
 40
0
 40
0
 40
0
 40
0
 40
1
 40
1
 40
1
 40
1
 10
144.661571
 20
122.363092
 30
0.0
 10
143.026884
 20
122.192234
 30
0.0
 10
142.972612
 20
122.208434
 30
0.0
 10
142.690390
 20
122.950707
 30
0.0
  0
SPLINE
  5
197
100
AcDbEntity
  8
Layer_1
 62
7
100
AcDbSpline
 70
8
 71
3
 72
8
 73
4
 74
0
 40
0
 40
0
 40
0
 40
0
 40
1
 40
1
 40
1
 40
1
 10
142.690390
 20
122.950707
 30
0.0
 10
142.044186
 20
124.650362
 30
0.0
 10
142.319635
 20
126.067512
 30
0.0
 10
143.664565
 20
127.963058
 30
0.0
  0
SPLINE
  5
198
100
AcDbEntity
  8
Layer_1
 62
7
100
AcDbSpline
 70
8
 71
3
 72
8
 73
4
 74
0
 40
0
 40
0
 40
0
 40
0
 40
1
 40
1
 40
1
 40
1
 10
143.664565
 20
127.963058
 30
0.0
 10
144.359960
 20
128.943131
 30
0.0
 10
145.200785
 20
130.287609
 30
0.0
 10
145.533045
 20
130.950775
 30
0.0
  0
SPLINE
  5
199
100
AcDbEntity
  8
Layer_1
 62
7
100
AcDbSpline
 70
8
 71
3
 72
8
 73
4
 74
0
 40
0
 40
0
 40
0
 40
0
 40
1
 40
1
 40
1
 40
1
 10
145.533045
 20
130.950775
 30
0.0
 10
146.250680
 20
132.383109
 30
0.0
 10
147.181562
 20
133.174187
 30
0.0
 10
148.575372
 20
133.536250
 30
0.0
  0
SPLINE
  5
19a
100
AcDbEntity
  8
Layer_1
 62
7
100
AcDbSpline
 70
8
 71
3
 72
8
 73
4
 74
0
 40
0
 40
0
 40
0
 40
0
 40
1
 40
1
 40
1
 40
1
 10
148.575372
 20
133.536250
 30
0.0
 10
150.072844
 20
133.925208
 30
0.0
 10
152.628676
 20
134.023394
 30
0.0
 10
152.737981
 20
133.696157
 30
0.0
  0
SPLINE
  5
19b
100
AcDbEntity
  8
Layer_1
 62
7
100
AcDbSpline
 70
8
 71
3
 72
8
 73
4
 74
0
 40
0
 40
0
 40
0
 40
0
 40
1
 40
1
 40
1
 40
1
 10
152.737981
 20
133.696157
 30
0.0
 10
152.789825
 20
133.540935
 30
0.0
 10
152.072529
 20
132.464954
 30
0.0
 10
151.143990
 20
131.305077
 30
0.0
  0
SPLINE
  5
19c
100
AcDbEntity
  8
Layer_1
 62
7
100
AcDbSpline
 70
8
 71
3
 72
8
 73
4
 74
0
 40
0
 40
0
 40
0
 40
0
 40
1
 40
1
 40
1
 40
1
 10
151.143990
 20
131.305077
 30
0.0
 10
148.876645
 20
128.472864
 30
0.0
 10
148.879975
 20
128.010245
 30
0.0
 10
151.197810
 20
123.844702
 30
0.0
  0
SPLINE
  5
19d
100
AcDbEntity
  8
Layer_1
 62
7
100
AcDbSpline
 70
8
 71
3
 72
8
 73
4
 74
0
 40
0
 40
0
 40
0
 40
0
 40
1
 40
1
 40
1
 40
1
 10
151.197810
 20
123.844702
 30
0.0
 10
154.713282
 20
117.526819
 30
0.0
 10
155.972078
 20
115.738066
 30
0.0
 10
159.326289
 20
112.294306
 30
0.0
  0
SPLINE
  5
19e
100
AcDbEntity
  8
Layer_1
 62
7
100
AcDbSpline
 70
8
 71
3
 72
8
 73
4
 74
0
 40
0
 40
0
 40
0
 40
0
 40
1
 40
1
 40
1
 40
1
 10
159.326289
 20
112.294306
 30
0.0
 10
162.267355
 20
109.274726
 30
0.0
 10
164.001188
 20
107.783802
 30
0.0
 10
168.078452
 20
104.768371
 30
0.0
  0
SPLINE
  5
19f
100
AcDbEntity
  8
Layer_1
 62
7
100
AcDbSpline
 70
8
 71
3
 72
8
 73
4
 74
0
 40
0
 40
0
 40
0
 40
0
 40
1
 40
1
 40
1
 40
1
 10
168.078452
 20
104.768371
 30
0.0
 10
173.684288
 20
100.622470
 30
0.0
 10
179.311263
 20
94.220202
 30
0.0
 10
180.217987
 20
90.956274
 30
0.0
  0
SPLINE
  5
1a0
100
AcDbEntity
  8
Layer_1
 62
7
100
AcDbSpline
 70
8
 71
3
 72
8
 73
4
 74
0
 40
0
 40
0
 40
0
 40
0
 40
1
 40
1
 40
1
 40
1
 10
180.217987
 20
90.956274
 30
0.0
 10
180.529871
 20
89.833509
 30
0.0
 10
180.552561
 20
83.004324
 30
0.0
 10
180.248015
 20
81.909866
 30
0.0
  0
SPLINE
  5
1a1
100
AcDbEntity
  8
Layer_1
 62
7
100
AcDbSpline
 70
8
 71
3
 72
8
 73
4
 74
0
 40
0
 40
0
 40
0
 40
0
 40
1
 40
1
 40
1
 40
1
 10
180.248015
 20
81.909866
 30
0.0
 10
180.055850
 20
81.219240
 30
0.0
 10
179.274828
 20
80.809623
 30
0.0
 10
179.004685
 20
81.257735
 30
0.0
  0
LWPOLYLINE
  5
1a2
100
AcDbEntity
  8
Layer_1
 62
7
100
AcDbPolyline
 90
2
 70
1
 10
273.718124
 20
78.181203
 30
0.0
 10
273.718124
 20
78.181203
 30
0.0
  0
SPLINE
  5
1a3
100
AcDbEntity
  8
Layer_1
 62
7
100
AcDbSpline
 70
8
 71
3
 72
8
 73
4
 74
0
 40
0
 40
0
 40
0
 40
0
 40
1
 40
1
 40
1
 40
1
 10
191.069855
 20
83.374515
 30
0.0
 10
190.958377
 20
83.732288
 30
0.0
 10
190.544667
 20
84.660037
 30
0.0
 10
190.150488
 20
85.436148
 30
0.0
  0
SPLINE
  5
1a4
100
AcDbEntity
  8
Layer_1
 62
7
100
AcDbSpline
 70
8
 71
3
 72
8
 73
4
 74
0
 40
0
 40
0
 40
0
 40
0
 40
1
 40
1
 40
1
 40
1
 10
190.150488
 20
85.436148
 30
0.0
 10
189.445581
 20
86.824089
 30
0.0
 10
189.433276
 20
86.958483
 30
0.0
 10
189.399974
 20
93.620593
 30
0.0
  0
SPLINE
  5
1a5
100
AcDbEntity
  8
Layer_1
 62
7
100
AcDbSpline
 70
8
 71
3
 72
8
 73
4
 74
0
 40
0
 40
0
 40
0
 40
0
 40
1
 40
1
 40
1
 40
1
 10
189.399974
 20
93.620593
 30
0.0
 10
189.381347
 20
97.345926
 30
0.0
 10
189.258383
 20
104.013426
 30
0.0
 10
189.126698
 20
108.437259
 30
0.0
  0
SPLINE
  5
1a6
100
AcDbEntity
  8
Layer_1
 62
7
100
AcDbSpline
 70
8
 71
3
 72
8
 73
4
 74
0
 40
0
 40
0
 40
0
 40
0
 40
1
 40
1
 40
1
 40
1
 10
189.126698
 20
108.437259
 30
0.0
 10
188.842190
 20
117.994235
 30
0.0
 10
189.082135
 20
121.233779
 30
0.0
 10
190.663116
 20
129.180593
 30
0.0
  0
SPLINE
  5
1a7
100
AcDbEntity
  8
Layer_1
 62
7
100
AcDbSpline
 70
8
 71
3
 72
8
 73
4
 74
0
 40
0
 40
0
 40
0
 40
0
 40
1
 40
1
 40
1
 40
1
 10
190.663116
 20
129.180593
 30
0.0
 10
191.130391
 20
131.529387
 30
0.0
 10
192.549461
 20
134.026950
 30
0.0
 10
194.707614
 20
136.298923
 30
0.0
  0
SPLINE
  5
1a8
100
AcDbEntity
  8
Layer_1
 62
7
100
AcDbSpline
 70
8
 71
3
 72
8
 73
4
 74
0
 40
0
 40
0
 40
0
 40
0
 40
1
 40
1
 40
1
 40
1
 10
194.707614
 20
136.298923
 30
0.0
 10
197.598586
 20
139.342379
 30
0.0
 10
199.976082
 20
140.367269
 30
0.0
 10
205.082922
 20
140.771524
 30
0.0
  0
SPLINE
  5
1a9
100
AcDbEntity
  8
Layer_1
 62
7
100
AcDbSpline
 70
8
 71
3
 72
8
 73
4
 74
0
 40
0
 40
0
 40
0
 40
0
 40
1
 40
1
 40
1
 40
1
 10
205.082922
 20
140.771524
 30
0.0
 10
208.322494
 20
141.027980
 30
0.0
 10
209.228794
 20
140.708024
 30
0.0
 10
210.829756
 20
138.742714
 30
0.0
  0
SPLINE
  5
1aa
100
AcDbEntity
  8
Layer_1
 62
7
100
AcDbSpline
 70
8
 71
3
 72
8
 73
4
 74
0
 40
0
 40
0
 40
0
 40
0
 40
1
 40
1
 40
1
 40
1
 10
210.829756
 20
138.742714
 30
0.0
 10
213.473868
 20
135.496763
 30
0.0
 10
214.437685
 20
132.524672
 30
0.0
 10
214.937275
 20
126.076148
 30
0.0
  0
SPLINE
  5
1ab
100
AcDbEntity
  8
Layer_1
 62
7
100
AcDbSpline
 70
8
 71
3
 72
8
 73
4
 74
0
 40
0
 40
0
 40
0
 40
0
 40
1
 40
1
 40
1
 40
1
 10
214.937275
 20
126.076148
 30
0.0
 10
215.393657
 20
120.185888
 30
0.0
 10
216.082843
 20
117.763039
 30
0.0
 10
217.512242
 20
117.023871
 30
0.0
  0
SPLINE
  5
1ac
100
AcDbEntity
  8
Layer_1
 62
7
100
AcDbSpline
 70
8
 71
3
 72
8
 73
4
 74
0
 40
0
 40
0
 40
0
 40
0
 40
1
 40
1
 40
1
 40
1
 10
217.512242
 20
117.023871
 30
0.0
 10
219.432906
 20
116.030646
 30
0.0
 10
224.439415
 20
117.032337
 30
0.0
 10
226.256700
 20
118.773338
 30
0.0
  0
SPLINE
  5
1ad
100
AcDbEntity
  8
Layer_1
 62
7
100
AcDbSpline
 70
8
 71
3
 72
8
 73
4
 74
0
 40
0
 40
0
 40
0
 40
0
 40
1
 40
1
 40
1
 40
1
 10
226.256700
 20
118.773338
 30
0.0
 10
227.773899
 20
120.226923
 30
0.0
 10
227.908237
 20
121.336762
 30
0.0
 10
227.716156
 20
130.830492
 30
0.0
  0
SPLINE
  5
1ae
100
AcDbEntity
  8
Layer_1
 62
7
100
AcDbSpline
 70
8
 71
3
 72
8
 73
4
 74
0
 40
0
 40
0
 40
0
 40
0
 40
1
 40
1
 40
1
 40
1
 10
227.716156
 20
130.830492
 30
0.0
 10
227.621076
 20
135.529896
 30
0.0
 10
227.629006
 20
139.716380
 30
0.0
 10
227.733654
 20
140.133843
 30
0.0
  0
SPLINE
  5
1af
100
AcDbEntity
  8
Layer_1
 62
7
100
AcDbSpline
 70
8
 71
3
 72
8
 73
4
 74
0
 40
0
 40
0
 40
0
 40
0
 40
1
 40
1
 40
1
 40
1
 10
227.733654
 20
140.133843
 30
0.0
 10
227.904681
 20
140.815297
 30
0.0
 10
228.052311
 20
140.892824
 30
0.0
 10
229.178858
 20
140.892824
 30
0.0
  0
SPLINE
  5
1b0
100
AcDbEntity
  8
Layer_1
 62
7
100
AcDbSpline
 70
8
 71
3
 72
8
 73
4
 74
0
 40
0
 40
0
 40
0
 40
0
 40
1
 40
1
 40
1
 40
1
 10
229.178858
 20
140.892824
 30
0.0
 10
230.089673
 20
140.892824
 30
0.0
 10
230.502593
 20
140.757470
 30
0.0
 10
230.685473
 20
140.398935
 30
0.0
  0
SPLINE
  5
1b1
100
AcDbEntity
  8
Layer_1
 62
7
100
AcDbSpline
 70
8
 71
3
 72
8
 73
4
 74
0
 40
0
 40
0
 40
0
 40
0
 40
1
 40
1
 40
1
 40
1
 10
230.685473
 20
140.398935
 30
0.0
 10
230.824044
 20
140.127296
 30
0.0
 10
231.087385
 20
136.285546
 30
0.0
 10
231.270660
 20
131.861704
 30
0.0
  0
SPLINE
  5
1b2
100
AcDbEntity
  8
Layer_1
 62
7
100
AcDbSpline
 70
8
 71
3
 72
8
 73
4
 74
0
 40
0
 40
0
 40
0
 40
0
 40
1
 40
1
 40
1
 40
1
 10
231.270660
 20
131.861704
 30
0.0
 10
231.570183
 20
124.632553
 30
0.0
 10
231.937185
 20
119.351865
 30
0.0
 10
232.702458
 20
111.259482
 30
0.0
  0
SPLINE
  5
1b3
100
AcDbEntity
  8
Layer_1
 62
7
100
AcDbSpline
 70
8
 71
3
 72
8
 73
4
 74
0
 40
0
 40
0
 40
0
 40
0
 40
1
 40
1
 40
1
 40
1
 10
232.702458
 20
111.259482
 30
0.0
 10
232.841904
 20
109.784871
 30
0.0
 10
233.036610
 20
106.736871
 30
0.0
 10
233.135105
 20
104.486148
 30
0.0
  0
SPLINE
  5
1b4
100
AcDbEntity
  8
Layer_1
 62
7
100
AcDbSpline
 70
8
 71
3
 72
8
 73
4
 74
0
 40
0
 40
0
 40
0
 40
0
 40
1
 40
1
 40
1
 40
1
 10
233.135105
 20
104.486148
 30
0.0
 10
233.284401
 20
101.074618
 30
0.0
 10
233.939128
 20
92.071814
 30
0.0
 10
234.534843
 20
85.238819
 30
0.0
  0
SPLINE
  5
1b5
100
AcDbEntity
  8
Layer_1
 62
7
100
AcDbSpline
 70
8
 71
3
 72
8
 73
4
 74
0
 40
0
 40
0
 40
0
 40
0
 40
1
 40
1
 40
1
 40
1
 10
234.534843
 20
85.238819
 30
0.0
 10
234.701664
 20
83.325549
 30
0.0
 10
234.232442
 20
82.597924
 30
0.0
 10
233.023373
 20
82.894850
 30
0.0
  0
SPLINE
  5
1b6
100
AcDbEntity
  8
Layer_1
 62
7
100
AcDbSpline
 70
8
 71
3
 72
8
 73
4
 74
0
 40
0
 40
0
 40
0
 40
0
 40
1
 40
1
 40
1
 40
1
 10
233.023373
 20
82.894850
 30
0.0
 10
231.767456
 20
83.203291
 30
0.0
 10
231.002606
 20
83.872694
 30
0.0
 10
230.460146
 20
85.138206
 30
0.0
  0
SPLINE
  5
1b7
100
AcDbEntity
  8
Layer_1
 62
7
100
AcDbSpline
 70
8
 71
3
 72
8
 73
4
 74
0
 40
0
 40
0
 40
0
 40
0
 40
1
 40
1
 40
1
 40
1
 10
230.460146
 20
85.138206
 30
0.0
 10
229.801129
 20
86.675612
 30
0.0
 10
228.843775
 20
91.404753
 30
0.0
 10
228.491280
 20
94.863895
 30
0.0
  0
SPLINE
  5
1b8
100
AcDbEntity
  8
Layer_1
 62
7
100
AcDbSpline
 70
8
 71
3
 72
8
 73
4
 74
0
 40
0
 40
0
 40
0
 40
0
 40
1
 40
1
 40
1
 40
1
 10
228.491280
 20
94.863895
 30
0.0
 10
228.342520
 20
96.323802
 30
0.0
 10
228.103393
 20
97.635712
 30
0.0
 10
227.959883
 20
97.779194
 30
0.0
  0
SPLINE
  5
1b9
100
AcDbEntity
  8
Layer_1
 62
7
100
AcDbSpline
 70
8
 71
3
 72
8
 73
4
 74
0
 40
0
 40
0
 40
0
 40
0
 40
1
 40
1
 40
1
 40
1
 10
227.959883
 20
97.779194
 30
0.0
 10
227.800146
 20
97.938960
 30
0.0
 10
226.421772
 20
97.900041
 30
0.0
 10
224.405266
 20
97.678835
 30
0.0
  0
SPLINE
  5
1ba
100
AcDbEntity
  8
Layer_1
 62
7
100
AcDbSpline
 70
8
 71
3
 72
8
 73
4
 74
0
 40
0
 40
0
 40
0
 40
0
 40
1
 40
1
 40
1
 40
1
 10
224.405266
 20
97.678835
 30
0.0
 10
221.521604
 20
97.362521
 30
0.0
 10
220.630205
 20
97.377874
 30
0.0
 10
217.245260
 20
97.802195
 30
0.0
  0
SPLINE
  5
1bb
100
AcDbEntity
  8
Layer_1
 62
7
100
AcDbSpline
 70
8
 71
3
 72
8
 73
4
 74
0
 40
0
 40
0
 40
0
 40
0
 40
1
 40
1
 40
1
 40
1
 10
217.245260
 20
97.802195
 30
0.0
 10
212.538951
 20
98.392124
 30
0.0
 10
211.562857
 20
98.399800
 30
0.0
 10
210.782230
 20
97.853051
 30
0.0
  0
SPLINE
  5
1bc
100
AcDbEntity
  8
Layer_1
 62
7
100
AcDbSpline
 70
8
 71
3
 72
8
 73
4
 74
0
 40
0
 40
0
 40
0
 40
0
 40
1
 40
1
 40
1
 40
1
 10
210.782230
 20
97.853051
 30
0.0
 10
209.725336
 20
97.112782
 30
0.0
 10
209.543049
 20
95.870976
 30
0.0
 10
209.629098
 20
89.997480
 30
0.0
  0
SPLINE
  5
1bd
100
AcDbEntity
  8
Layer_1
 62
7
100
AcDbSpline
 70
8
 71
3
 72
8
 73
4
 74
0
 40
0
 40
0
 40
0
 40
0
 40
1
 40
1
 40
1
 40
1
 10
209.629098
 20
89.997480
 30
0.0
 10
209.700134
 20
85.147830
 30
0.0
 10
209.652523
 20
84.412641
 30
0.0
 10
209.240055
 20
83.999440
 30
0.0
  0
SPLINE
  5
1be
100
AcDbEntity
  8
Layer_1
 62
7
100
AcDbSpline
 70
8
 71
3
 72
8
 73
4
 74
0
 40
0
 40
0
 40
0
 40
0
 40
1
 40
1
 40
1
 40
1
 10
209.240055
 20
83.999440
 30
0.0
 10
208.568169
 20
83.326227
 30
0.0
 10
207.415545
 20
83.699212
 30
0.0
 10
206.739030
 20
84.808712
 30
0.0
  0
SPLINE
  5
1bf
100
AcDbEntity
  8
Layer_1
 62
7
100
AcDbSpline
 70
8
 71
3
 72
8
 73
4
 74
0
 40
0
 40
0
 40
0
 40
0
 40
1
 40
1
 40
1
 40
1
 10
206.739030
 20
84.808712
 30
0.0
 10
206.292188
 20
85.541558
 30
0.0
 10
206.187286
 20
86.212062
 30
0.0
 10
206.199336
 20
88.258371
 30
0.0
  0
SPLINE
  5
1c0
100
AcDbEntity
  8
Layer_1
 62
7
100
AcDbSpline
 70
8
 71
3
 72
8
 73
4
 74
0
 40
0
 40
0
 40
0
 40
0
 40
1
 40
1
 40
1
 40
1
 10
206.199336
 20
88.258371
 30
0.0
 10
206.224172
 20
92.458571
 30
0.0
 10
206.897752
 20
99.895776
 30
0.0
 10
207.297068
 20
100.376936
 30
0.0
  0
SPLINE
  5
1c1
100
AcDbEntity
  8
Layer_1
 62
7
100
AcDbSpline
 70
8
 71
3
 72
8
 73
4
 74
0
 40
0
 40
0
 40
0
 40
0
 40
1
 40
1
 40
1
 40
1
 10
207.297068
 20
100.376936
 30
0.0
 10
207.959161
 20
101.174694
 30
0.0
 10
209.783474
 20
101.410999
 30
0.0
 10
214.731055
 20
101.339850
 30
0.0
  0
SPLINE
  5
1c2
100
AcDbEntity
  8
Layer_1
 62
7
100
AcDbSpline
 70
8
 71
3
 72
8
 73
4
 74
0
 40
0
 40
0
 40
0
 40
0
 40
1
 40
1
 40
1
 40
1
 10
214.731055
 20
101.339850
 30
0.0
 10
225.292037
 20
101.187987
 30
0.0
 10
226.192184
 20
101.297376
 30
0.0
 10
227.825800
 20
102.930991
 30
0.0
  0
SPLINE
  5
1c3
100
AcDbEntity
  8
Layer_1
 62
7
100
AcDbSpline
 70
8
 71
3
 72
8
 73
4
 74
0
 40
0
 40
0
 40
0
 40
0
 40
1
 40
1
 40
1
 40
1
 10
227.825800
 20
102.930991
 30
0.0
 10
228.674837
 20
103.780028
 30
0.0
 10
228.760068
 20
104.019071
 30
0.0
 10
228.760068
 20
105.551340
 30
0.0
  0
SPLINE
  5
1c4
100
AcDbEntity
  8
Layer_1
 62
7
100
AcDbSpline
 70
8
 71
3
 72
8
 73
4
 74
0
 40
0
 40
0
 40
0
 40
0
 40
1
 40
1
 40
1
 40
1
 10
228.760068
 20
105.551340
 30
0.0
 10
228.760068
 20
108.638399
 30
0.0
 10
227.448186
 20
110.970006
 30
0.0
 10
225.389432
 20
111.541930
 30
0.0
  0
SPLINE
  5
1c5
100
AcDbEntity
  8
Layer_1
 62
7
100
AcDbSpline
 70
8
 71
3
 72
8
 73
4
 74
0
 40
0
 40
0
 40
0
 40
0
 40
1
 40
1
 40
1
 40
1
 10
225.389432
 20
111.541930
 30
0.0
 10
224.837348
 20
111.695289
 30
0.0
 10
222.635281
 20
111.821499
 30
0.0
 10
220.496009
 20
111.822346
 30
0.0
  0
SPLINE
  5
1c6
100
AcDbEntity
  8
Layer_1
 62
7
100
AcDbSpline
 70
8
 71
3
 72
8
 73
4
 74
0
 40
0
 40
0
 40
0
 40
0
 40
1
 40
1
 40
1
 40
1
 10
220.496009
 20
111.822346
 30
0.0
 10
216.353382
 20
111.825168
 30
0.0
 10
215.165141
 20
112.091586
 30
0.0
 10
213.849224
 20
113.319055
 30
0.0
  0
SPLINE
  5
1c7
100
AcDbEntity
  8
Layer_1
 62
7
100
AcDbSpline
 70
8
 71
3
 72
8
 73
4
 74
0
 40
0
 40
0
 40
0
 40
0
 40
1
 40
1
 40
1
 40
1
 10
213.849224
 20
113.319055
 30
0.0
 10
212.304311
 20
114.760138
 30
0.0
 10
211.690421
 20
116.766540
 30
0.0
 10
211.111245
 20
122.267926
 30
0.0
  0
SPLINE
  5
1c8
100
AcDbEntity
  8
Layer_1
 62
7
100
AcDbSpline
 70
8
 71
3
 72
8
 73
4
 74
0
 40
0
 40
0
 40
0
 40
0
 40
1
 40
1
 40
1
 40
1
 10
211.111245
 20
122.267926
 30
0.0
 10
210.880726
 20
124.457576
 30
0.0
 10
210.519425
 20
126.662409
 30
0.0
 10
210.308351
 20
127.167558
 30
0.0
  0
SPLINE
  5
1c9
100
AcDbEntity
  8
Layer_1
 62
7
100
AcDbSpline
 70
8
 71
3
 72
8
 73
4
 74
0
 40
0
 40
0
 40
0
 40
0
 40
1
 40
1
 40
1
 40
1
 10
210.308351
 20
127.167558
 30
0.0
 10
209.178785
 20
129.871021
 30
0.0
 10
204.293800
 20
131.922043
 30
0.0
 10
201.428454
 20
130.895939
 30
0.0
  0
SPLINE
  5
1ca
100
AcDbEntity
  8
Layer_1
 62
7
100
AcDbSpline
 70
8
 71
3
 72
8
 73
4
 74
0
 40
0
 40
0
 40
0
 40
0
 40
1
 40
1
 40
1
 40
1
 10
201.428454
 20
130.895939
 30
0.0
 10
200.000720
 20
130.384637
 30
0.0
 10
197.088921
 20
128.144414
 30
0.0
 10
195.487705
 20
126.325322
 30
0.0
  0
SPLINE
  5
1cb
100
AcDbEntity
  8
Layer_1
 62
7
100
AcDbSpline
 70
8
 71
3
 72
8
 73
4
 74
0
 40
0
 40
0
 40
0
 40
0
 40
1
 40
1
 40
1
 40
1
 10
195.487705
 20
126.325322
 30
0.0
 10
193.709507
 20
124.305176
 30
0.0
 10
193.460051
 20
123.222063
 30
0.0
 10
193.187791
 20
116.339482
 30
0.0
  0
SPLINE
  5
1cc
100
AcDbEntity
  8
Layer_1
 62
7
100
AcDbSpline
 70
8
 71
3
 72
8
 73
4
 74
0
 40
0
 40
0
 40
0
 40
0
 40
1
 40
1
 40
1
 40
1
 10
193.187791
 20
116.339482
 30
0.0
 10
193.055740
 20
113.002204
 30
0.0
 10
192.812577
 20
108.684204
 30
0.0
 10
192.647364
 20
106.743926
 30
0.0
  0
SPLINE
  5
1cd
100
AcDbEntity
  8
Layer_1
 62
7
100
AcDbSpline
 70
8
 71
3
 72
8
 73
4
 74
0
 40
0
 40
0
 40
0
 40
0
 40
1
 40
1
 40
1
 40
1
 10
192.647364
 20
106.743926
 30
0.0
 10
192.482151
 20
104.803648
 30
0.0
 10
192.332997
 20
99.469648
 30
0.0
 10
192.315866
 20
94.890593
 30
0.0
  0
SPLINE
  5
1ce
100
AcDbEntity
  8
Layer_1
 62
7
100
AcDbSpline
 70
8
 71
3
 72
8
 73
4
 74
0
 40
0
 40
0
 40
0
 40
0
 40
1
 40
1
 40
1
 40
1
 10
192.315866
 20
94.890593
 30
0.0
 10
192.298650
 20
90.311537
 30
0.0
 10
192.204981
 20
85.749697
 30
0.0
 10
192.107416
 20
84.753199
 30
0.0
  0
SPLINE
  5
1cf
100
AcDbEntity
  8
Layer_1
 62
7
100
AcDbSpline
 70
8
 71
3
 72
8
 73
4
 74
0
 40
0
 40
0
 40
0
 40
0
 40
1
 40
1
 40
1
 40
1
 10
192.107416
 20
84.753199
 30
0.0
 10
191.924847
 20
82.888077
 30
0.0
 10
191.427261
 20
82.226971
 30
0.0
 10
191.069714
 20
83.374515
 30
0.0
  0
LWPOLYLINE
  5
1d0
100
AcDbEntity
  8
Layer_1
 62
7
100
AcDbPolyline
 90
2
 70
1
 10
179.004685
 20
81.257735
 30
0.0
 10
179.004685
 20
81.257735
 30
0.0
  0
SPLINE
  5
1d1
100
AcDbEntity
  8
Layer_1
 62
7
100
AcDbSpline
 70
8
 71
3
 72
8
 73
4
 74
0
 40
0
 40
0
 40
0
 40
0
 40
1
 40
1
 40
1
 40
1
 10
162.440470
 20
114.988851
 30
0.0
 10
162.053798
 20
115.196228
 30
0.0
 10
161.693795
 20
115.592355
 30
0.0
 10
161.640483
 20
115.869130
 30
0.0
  0
SPLINE
  5
1d2
100
AcDbEntity
  8
Layer_1
 62
7
100
AcDbSpline
 70
8
 71
3
 72
8
 73
4
 74
0
 40
0
 40
0
 40
0
 40
0
 40
1
 40
1
 40
1
 40
1
 10
161.640483
 20
115.869130
 30
0.0
 10
161.494349
 20
116.627969
 30
0.0
 10
163.879070
 20
118.764899
 30
0.0
 10
167.166733
 20
120.821199
 30
0.0
  0
SPLINE
  5
1d3
100
AcDbEntity
  8
Layer_1
 62
7
100
AcDbSpline
 70
8
 71
3
 72
8
 73
4
 74
0
 40
0
 40
0
 40
0
 40
0
 40
1
 40
1
 40
1
 40
1
 10
167.166733
 20
120.821199
 30
0.0
 10
169.328188
 20
122.173100
 30
0.0
 10
170.343963
 20
123.017085
 30
0.0
 10
171.242812
 20
124.207865
 30
0.0
  0
SPLINE
  5
1d4
100
AcDbEntity
  8
Layer_1
 62
7
100
AcDbSpline
 70
8
 71
3
 72
8
 73
4
 74
0
 40
0
 40
0
 40
0
 40
0
 40
1
 40
1
 40
1
 40
1
 10
171.242812
 20
124.207865
 30
0.0
 10
173.223250
 20
126.831516
 30
0.0
 10
182.306318
 20
135.655061
 30
0.0
 10
183.489958
 20
136.105093
 30
0.0
  0
SPLINE
  5
1d5
100
AcDbEntity
  8
Layer_1
 62
7
100
AcDbSpline
 70
8
 71
3
 72
8
 73
4
 74
0
 40
0
 40
0
 40
0
 40
0
 40
1
 40
1
 40
1
 40
1
 10
183.489958
 20
136.105093
 30
0.0
 10
184.886225
 20
136.635953
 30
0.0
 10
184.936093
 20
135.985007
 30
0.0
 10
183.640665
 20
134.138258
 30
0.0
  0
SPLINE
  5
1d6
100
AcDbEntity
  8
Layer_1
 62
7
100
AcDbSpline
 70
8
 71
3
 72
8
 73
4
 74
0
 40
0
 40
0
 40
0
 40
0
 40
1
 40
1
 40
1
 40
1
 10
183.640665
 20
134.138258
 30
0.0
 10
182.431032
 20
132.413787
 30
0.0
 10
181.064625
 20
129.634463
 30
0.0
 10
181.064625
 20
128.898455
 30
0.0
  0
SPLINE
  5
1d7
100
AcDbEntity
  8
Layer_1
 62
7
100
AcDbSpline
 70
8
 71
3
 72
8
 73
4
 74
0
 40
0
 40
0
 40
0
 40
0
 40
1
 40
1
 40
1
 40
1
 10
181.064625
 20
128.898455
 30
0.0
 10
181.064625
 20
128.674512
 30
0.0
 10
180.263509
 20
127.312903
 30
0.0
 10
179.284339
 20
125.872610
 30
0.0
  0
SPLINE
  5
1d8
100
AcDbEntity
  8
Layer_1
 62
7
100
AcDbSpline
 70
8
 71
3
 72
8
 73
4
 74
0
 40
0
 40
0
 40
0
 40
0
 40
1
 40
1
 40
1
 40
1
 10
179.284339
 20
125.872610
 30
0.0
 10
178.305169
 20
124.432345
 30
0.0
 10
176.876419
 20
122.187888
 30
0.0
 10
176.109339
 20
120.884953
 30
0.0
  0
SPLINE
  5
1d9
100
AcDbEntity
  8
Layer_1
 62
7
100
AcDbSpline
 70
8
 71
3
 72
8
 73
4
 74
0
 40
0
 40
0
 40
0
 40
0
 40
1
 40
1
 40
1
 40
1
 10
176.109339
 20
120.884953
 30
0.0
 10
174.077480
 20
117.433742
 30
0.0
 10
172.595532
 20
115.882423
 30
0.0
 10
170.811802
 20
115.339371
 30
0.0
  0
SPLINE
  5
1da
100
AcDbEntity
  8
Layer_1
 62
7
100
AcDbSpline
 70
8
 71
3
 72
8
 73
4
 74
0
 40
0
 40
0
 40
0
 40
0
 40
1
 40
1
 40
1
 40
1
 10
170.811802
 20
115.339371
 30
0.0
 10
168.779859
 20
114.720796
 30
0.0
 10
163.363252
 20
114.493974
 30
0.0
 10
162.440470
 20
114.988851
 30
0.0
  0
LWPOLYLINE
  5
1db
100
AcDbEntity
  8
Layer_1
 62
7
100
AcDbPolyline
 90
2
 70
1
 10
191.069714
 20
83.374515
 30
0.0
 10
191.069855
 20
83.374515
 30
0.0
  0
SPLINE
  5
1dc
100
AcDbEntity
  8
Layer_2
 62
7
100
AcDbSpline
 70
8
 71
3
 72
8
 73
4
 74
0
 40
0
 40
0
 40
0
 40
0
 40
1
 40
1
 40
1
 40
1
 10
39.999999
 20
145.000001
 30
0.0
 10
26.979982
 20
143.607457
 30
0.0
 10
24.944732
 20
128.294491
 30
0.0
 10
27.142703
 20
118.022257
 30
0.0
  0
SPLINE
  5
1dd
100
AcDbEntity
  8
Layer_2
 62
7
100
AcDbSpline
 70
8
 71
3
 72
8
 73
4
 74
0
 40
0
 40
0
 40
0
 40
0
 40
1
 40
1
 40
1
 40
1
 10
27.142703
 20
118.022257
 30
0.0
 10
23.720093
 20
106.654498
 30
0.0
 10
8.958068
 20
101.339317
 30
0.0
 10
10.449206
 20
87.700146
 30
0.0
  0
SPLINE
  5
1de
100
AcDbEntity
  8
Layer_2
 62
7
100
AcDbSpline
 70
8
 71
3
 72
8
 73
4
 74
0
 40
0
 40
0
 40
0
 40
0
 40
1
 40
1
 40
1
 40
1
 10
10.449206
 20
87.700146
 30
0.0
 10
9.484863
 20
76.681364
 30
0.0
 10
14.785856
 20
58.597140
 30
0.0
 10
29.065790
 20
61.832741
 30
0.0
  0
SPLINE
  5
1df
100
AcDbEntity
  8
Layer_2
 62
7
100
AcDbSpline
 70
8
 71
3
 72
8
 73
4
 74
0
 40
0
 40
0
 40
0
 40
0
 40
1
 40
1
 40
1
 40
1
 10
29.065790
 20
61.832741
 30
0.0
 10
44.628189
 20
64.919259
 30
0.0
 10
64.117471
 20
68.982339
 30
0.0
 10
80.000001
 20
69.999998
 30
0.0
  0
SPLINE
  5
1e0
100
AcDbEntity
  8
Layer_2
 62
7
100
AcDbSpline
 70
8
 71
3
 72
8
 73
4
 74
0
 40
0
 40
0
 40
0
 40
0
 40
1
 40
1
 40
1
 40
1
 10
80.000001
 20
69.999998
 30
0.0
 10
87.848765
 20
69.951329
 30
0.0
 10
92.935950
 20
66.435760
 30
0.0
 10
100.000000
 20
65.000000
 30
0.0
  0
SPLINE
  5
1e1
100
AcDbEntity
  8
Layer_2
 62
7
100
AcDbSpline
 70
8
 71
3
 72
8
 73
4
 74
0
 40
0
 40
0
 40
0
 40
0
 40
1
 40
1
 40
1
 40
1
 10
100.000000
 20
65.000000
 30
0.0
 10
107.064051
 20
63.564242
 30
0.0
 10
117.191200
 20
68.960083
 30
0.0
 10
125.000001
 20
69.999998
 30
0.0
  0
SPLINE
  5
1e2
100
AcDbEntity
  8
Layer_2
 62
7
100
AcDbSpline
 70
8
 71
3
 72
8
 73
4
 74
0
 40
0
 40
0
 40
0
 40
0
 40
1
 40
1
 40
1
 40
1
 10
125.000001
 20
69.999998
 30
0.0
 10
138.840281
 20
70.207096
 30
0.0
 10
149.999999
 20
65.000000
 30
0.0
 10
165.000000
 20
69.999998
 30
0.0
  0
SPLINE
  5
1e3
100
AcDbEntity
  8
Layer_2
 62
7
100
AcDbSpline
 70
8
 71
3
 72
8
 73
4
 74
0
 40
0
 40
0
 40
0
 40
0
 40
1
 40
1
 40
1
 40
1
 10
165.000000
 20
69.999998
 30
0.0
 10
177.313212
 20
71.025966
 30
0.0
 10
187.349988
 20
81.838789
 30
0.0
 10
200.000001
 20
79.999998
 30
0.0
  0
SPLINE
  5
1e4
100
AcDbEntity
  8
Layer_2
 62
7
100
AcDbSpline
 70
8
 71
3
 72
8
 73
4
 74
0
 40
0
 40
0
 40
0
 40
0
 40
1
 40
1
 40
1
 40
1
 10
200.000001
 20
79.999998
 30
0.0
 10
208.597698
 20
79.309355
 30
0.0
 10
225.722637
 20
75.578806
 30
0.0
 10
235.000001
 20
79.999998
 30
0.0
  0
SPLINE
  5
1e5
100
AcDbEntity
  8
Layer_2
 62
7
100
AcDbSpline
 70
8
 71
3
 72
8
 73
4
 74
0
 40
0
 40
0
 40
0
 40
0
 40
1
 40
1
 40
1
 40
1
 10
235.000001
 20
79.999998
 30
0.0
 10
244.277368
 20
84.421190
 30
0.0
 10
241.420526
 20
94.381582
 30
0.0
 10
250.000000
 20
94.999999
 30
0.0
  0
SPLINE
  5
1e6
100
AcDbEntity
  8
Layer_2
 62
7
100
AcDbSpline
 70
8
 71
3
 72
8
 73
4
 74
0
 40
0
 40
0
 40
0
 40
0
 40
1
 40
1
 40
1
 40
1
 10
250.000000
 20
94.999999
 30
0.0
 10
261.289343
 20
96.000773
 30
0.0
 10
272.184080
 20
62.142542
 30
0.0
 10
279.999999
 20
75.000000
 30
0.0
  0
SPLINE
  5
1e7
100
AcDbEntity
  8
Layer_2
 62
7
100
AcDbSpline
 70
8
 71
3
 72
8
 73
4
 74
0
 40
0
 40
0
 40
0
 40
0
 40
1
 40
1
 40
1
 40
1
 10
279.999999
 20
75.000000
 30
0.0
 10
284.024973
 20
87.916255
 30
0.0
 10
275.283487
 20
97.395851
 30
0.0
 10
273.610321
 20
109.603232
 30
0.0
  0
SPLINE
  5
1e8
100
AcDbEntity
  8
Layer_2
 62
7
100
AcDbSpline
 70
8
 71
3
 72
8
 73
4
 74
0
 40
0
 40
0
 40
0
 40
0
 40
1
 40
1
 40
1
 40
1
 10
273.610321
 20
109.603232
 30
0.0
 10
269.172114
 20
121.282412
 30
0.0
 10
271.458015
 20
134.453142
 30
0.0
 10
265.727265
 20
145.827310
 30
0.0
  0
SPLINE
  5
1e9
100
AcDbEntity
  8
Layer_2
 62
7
100
AcDbSpline
 70
8
 71
3
 72
8
 73
4
 74
0
 40
0
 40
0
 40
0
 40
0
 40
1
 40
1
 40
1
 40
1
 10
265.727265
 20
145.827310
 30
0.0
 10
262.144064
 20
152.362131
 30
0.0
 10
259.601400
 20
162.877988
 30
0.0
 10
250.790972
 20
163.448975
 30
0.0
  0
SPLINE
  5
1ea
100
AcDbEntity
  8
Layer_2
 62
7
100
AcDbSpline
 70
8
 71
3
 72
8
 73
4
 74
0
 40
0
 40
0
 40
0
 40
0
 40
1
 40
1
 40
1
 40
1
 10
250.790972
 20
163.448975
 30
0.0
 10
240.019795
 20
162.020800
 30
0.0
 10
248.709078
 20
142.139278
 30
0.0
 10
234.242805
 20
146.601603
 30
0.0
  0
SPLINE
  5
1eb
100
AcDbEntity
  8
Layer_2
 62
7
100
AcDbSpline
 70
8
 71
3
 72
8
 73
4
 74
0
 40
0
 40
0
 40
0
 40
0
 40
1
 40
1
 40
1
 40
1
 10
234.242805
 20
146.601603
 30
0.0
 10
223.166034
 20
147.887873
 30
0.0
 10
212.157872
 20
144.171678
 30
0.0
 10
200.896223
 20
145.846329
 30
0.0
  0
SPLINE
  5
1ec
100
AcDbEntity
  8
Layer_2
 62
7
100
AcDbSpline
 70
8
 71
3
 72
8
 73
4
 74
0
 40
0
 40
0
 40
0
 40
0
 40
1
 40
1
 40
1
 40
1
 10
200.896223
 20
145.846329
 30
0.0
 10
188.877547
 20
145.630776
 30
0.0
 10
177.312797
 20
140.900381
 30
0.0
 10
166.108307
 20
136.844947
 30
0.0
  0
SPLINE
  5
1ed
100
AcDbEntity
  8
Layer_2
 62
7
100
AcDbSpline
 70
8
 71
3
 72
8
 73
4
 74
0
 40
0
 40
0
 40
0
 40
0
 40
1
 40
1
 40
1
 40
1
 10
166.108307
 20
136.844947
 30
0.0
 10
155.048983
 20
134.483134
 30
0.0
 10
144.324778
 20
142.340818
 30
0.0
 10
133.062811
 20
142.354839
 30
0.0
  0
SPLINE
  5
1ee
100
AcDbEntity
  8
Layer_2
 62
7
100
AcDbSpline
 70
8
 71
3
 72
8
 73
4
 74
0
 40
0
 40
0
 40
0
 40
0
 40
1
 40
1
 40
1
 40
1
 10
133.062811
 20
142.354839
 30
0.0
 10
116.957170
 20
143.543500
 30
0.0
 10
104.592047
 20
130.392768
 30
0.0
 10
88.864745
 20
129.163321
 30
0.0
  0
SPLINE
  5
1ef
100
AcDbEntity
  8
Layer_2
 62
7
100
AcDbSpline
 70
8
 71
3
 72
8
 73
4
 74
0
 40
0
 40
0
 40
0
 40
0
 40
1
 40
1
 40
1
 40
1
 10
88.864745
 20
129.163321
 30
0.0
 10
76.968011
 20
128.169402
 30
0.0
 10
64.998795
 20
127.580946
 30
0.0
 10
53.051318
 20
127.957789
 30
0.0
  0
SPLINE
  5
1f0
100
AcDbEntity
  8
Layer_2
 62
7
100
AcDbSpline
 70
8
 71
3
 72
8
 73
4
 74
0
 40
0
 40
0
 40
0
 40
0
 40
1
 40
1
 40
1
 40
1
 10
53.051318
 20
127.957789
 30
0.0
 10
46.274217
 20
131.291020
 30
0.0
 10
49.999999
 20
145.000001
 30
0.0
 10
39.999999
 20
145.000001
 30
0.0
  0
LWPOLYLINE
  5
1f1
100
AcDbEntity
  8
Layer_1
 62
7
100
AcDbPolyline
 90
2
 70
1
 10
162.440470
 20
114.988851
 30
0.0
 10
162.440470
 20
114.988851
 30
0.0
  0
LWPOLYLINE
  5
1f2
100
AcDbEntity
  8
Layer_2
 62
7
100
AcDbPolyline
 90
2
 70
1
 10
39.999999
 20
145.000001
 30
0.0
 10
39.999999
 20
145.000001
 30
0.0
  0
ENDSEC
  0
SECTION
  2
OBJECTS
  0
DICTIONARY
  5
C
330
0
100
AcDbDictionary
  3
ACAD_GROUP
350
D
  3
ACAD_MLINESTYLE
350
17
  0
DICTIONARY
  5
D
330
C
100
AcDbDictionary
  0
DICTIONARY
  5
1A
330
C
100
AcDbDictionary
  0
DICTIONARY
  5
17
330
C
100
AcDbDictionary
  3
STANDARD
350
18
  0
DICTIONARY
  5
19
330
C
100
AcDbDictionary
  0
ENDSEC
  0
EOF
